<svg width="80" height="80" viewBox="0 0 80 80" fill="none" xmlns="http://www.w3.org/2000/svg">
<path d="M40 0L44.1811 0.219124L48.3165 0.874096L52.3607 1.95774L56.2695 3.45818L60 5.35898L63.5114 7.63932L66.7652 10.2742L69.7258 13.2348L72.3607 16.4886L74.641 20L76.5418 23.7305L78.0423 27.6393L79.1259 31.6835L79.7809 35.8189L80 40L79.7809 44.1811L79.1259 48.3165L78.0423 52.3607L76.5418 56.2695L74.641 60L72.3607 63.5114L69.7258 66.7652L66.7652 69.7258L63.5114 72.3607L60 74.641L56.2695 76.5418L52.3607 78.0423L48.3165 79.1259L44.1811 79.7809L40 80L35.8189 79.7809L31.6835 79.1259L27.6393 78.0423L23.7305 76.5418L20 74.641L16.4886 72.3607L13.2348 69.7258L10.2742 66.7652L7.63932 63.5114L5.35898 60L3.45818 56.2695L1.95774 52.3607L0.874096 48.3165L0.219124 44.1811L0 40L0.219124 35.8189L0.874096 31.6835L1.95774 27.6393L3.45818 23.7305L5.35898 20L7.63932 16.4886L10.2742 13.2348L13.2348 10.2742L16.4886 7.63932L20 5.35898L23.7305 3.45818L27.6393 1.95774L31.6835 0.874096L35.8189 0.219124L40 0Z" fill="#EDF2FF"/>
<path d="M35.9129 48.7376H31.4917L34.6389 40.746C34.7478 40.4701 34.6372 40.1568 34.3778 40.0049C34.1175 39.8548 33.7846 39.9086 33.589 40.1342L24.1474 51.0503C23.9907 51.2308 23.9562 51.4842 24.0571 51.6986C24.1589 51.9138 24.3785 52.0509 24.6193 52.0509H28.796L25.03 59.1105C24.8884 59.376 24.9654 59.7032 25.2115 59.8811C25.3213 59.9609 25.4505 60 25.5798 60C25.7383 60 25.8958 59.9401 26.0162 59.8238L36.3493 49.7773C36.5272 49.6037 36.5812 49.3425 36.4856 49.1143C36.39 48.886 36.1643 48.7376 35.9129 48.7376ZM27.9807 56.2025L30.3692 51.7255C30.4701 51.5372 30.4621 51.3107 30.3506 51.1293C30.2391 50.9471 30.0372 50.836 29.8203 50.836H25.9569L32.1619 43.6619L30.0107 49.1264C29.9372 49.313 29.962 49.5239 30.0779 49.6879C30.193 49.8528 30.3842 49.9526 30.5887 49.9526H34.4088L27.9807 56.2025ZM31.783 20.1652C31.5422 19.9448 31.166 19.9457 30.9278 20.173C30.6675 20.4203 24.5591 26.2858 24.5591 31.5065C24.5591 35.1817 27.6098 38.173 31.3598 38.173C35.1108 38.173 38.1624 35.1826 38.1624 31.5065C38.1615 26.0732 32.0433 20.4039 31.783 20.1652ZM31.3589 36.9572C28.2932 36.9572 25.7985 34.5117 25.7985 31.5065C25.7985 27.5467 29.9983 22.884 31.366 21.4713C32.7391 22.8493 36.9212 27.3862 36.9212 31.5065C36.9221 34.5117 34.4265 36.9572 31.3589 36.9572ZM28.0754 31.4145C28.0754 31.0787 27.7983 30.8071 27.4557 30.8071C27.1131 30.8071 26.836 31.0787 26.836 31.4145C26.836 33.86 28.8651 35.849 31.3598 35.849C31.7024 35.849 31.9795 35.5774 31.9795 35.2416C31.9795 34.9057 31.7024 34.6341 31.3598 34.6341C29.5485 34.6341 28.0754 33.1901 28.0754 31.4145ZM48.9673 38.1713C48.9761 38.1713 49.0487 38.1704 49.0576 38.1695C49.3639 38.1574 49.6144 37.9283 49.6481 37.6298C49.6782 37.3677 49.5321 37.1221 49.2966 37.0136C49.2408 36.9546 48.9885 36.6309 48.9168 35.5314C48.7823 33.5285 49.3506 32.7692 50.212 31.6194C50.7998 30.8357 51.5311 29.8594 52.1888 28.2818C53.916 24.1345 50.2173 20.3431 50.0597 20.1834C49.9207 20.0429 49.7251 19.9769 49.5215 20.0073C49.3232 20.0368 49.1523 20.1591 49.062 20.3336C49.0558 20.3457 48.4423 21.5199 46.9825 23.0645C45.6298 24.4973 42.8137 27.4791 42.8137 31.1672C42.8137 37.9751 48.3378 38.1713 48.9673 38.1713ZM47.8917 23.8907C48.7486 22.9838 49.3356 22.195 49.6985 21.6526C50.5661 22.7799 52.1003 25.2792 51.0406 27.8218C50.4404 29.2607 49.7888 30.1319 49.2134 30.8999C48.3024 32.1157 47.5154 33.1658 47.681 35.6095C47.7128 36.1068 47.781 36.5077 47.8713 36.8305C46.3743 36.499 44.0539 35.3153 44.0539 31.1681C44.0531 27.9564 46.6461 25.2106 47.8917 23.8907ZM51.6435 37.9708C51.7648 38.1036 51.9339 38.1721 52.1047 38.1721C52.2305 38.1721 52.3553 38.1357 52.4633 38.0593C52.5713 37.9847 55.1138 36.1892 55.5875 33.8722C56.0611 31.5508 54.3498 28.8736 54.2763 28.7608C54.1436 28.5569 53.8974 28.4475 53.6575 28.4866C53.4141 28.5239 53.2158 28.6992 53.1538 28.9335C53.1485 28.9552 52.5633 31.1152 51.0353 33.2864C49.7676 35.0828 50.8786 37.136 51.6435 37.9708ZM52.0543 33.9763C52.9192 32.7466 53.5017 31.5326 53.8629 30.6405C54.2401 31.5291 54.5667 32.6789 54.3711 33.6344C54.1037 34.9413 52.9042 36.1163 52.2207 36.6943C51.8356 36.0842 51.3505 34.976 52.0543 33.9763ZM55.3803 45.7489H53.3061V45.3628C53.3061 44.3066 52.4296 43.4484 51.3522 43.4484C50.6467 43.4484 50.0332 43.8181 49.6879 44.3665C49.3444 43.8181 48.7336 43.4484 48.0307 43.4484C47.2543 43.4484 46.5868 43.897 46.2716 44.5401C45.9564 43.897 45.2907 43.4484 44.5152 43.4484C43.4369 43.4484 42.5596 44.3066 42.5596 45.3628V52.8102H40.4871C40.1445 52.8102 39.8674 53.0819 39.8674 53.4177V55.9942C39.8674 56.3301 40.1445 56.6017 40.4871 56.6017H42.5596V57.0729C42.5596 58.1308 43.4369 58.9916 44.5152 58.9916C45.2907 58.9916 45.9564 58.5421 46.2716 57.8973C46.5868 58.5421 47.2543 58.9916 48.0307 58.9916C48.7336 58.9916 49.3444 58.6202 49.6879 58.0709C50.0332 58.6202 50.6467 58.9916 51.3522 58.9916C52.4296 58.9916 53.3061 58.1308 53.3061 57.0729V49.5395H55.3803C55.7229 49.5395 56 49.2679 56 48.932V46.3564C56 46.0206 55.7229 45.7489 55.3803 45.7489ZM42.5596 55.3859H41.1068V54.0252H42.5596V55.3859ZM45.2287 57.0729C45.2287 57.4608 44.9091 57.7767 44.5143 57.7767C44.1195 57.7767 43.7981 57.4617 43.7981 57.0729V45.3628C43.7981 44.9775 44.1186 44.6633 44.5143 44.6633C44.9082 44.6633 45.2287 44.9766 45.2287 45.3628V57.0729ZM48.7415 57.0729C48.7415 57.4608 48.4228 57.7767 48.0307 57.7767C47.6349 57.7767 47.3127 57.4617 47.3127 57.0729V45.3628C47.3127 44.9775 47.634 44.6633 48.0307 44.6633C48.422 44.6633 48.7415 44.9766 48.7415 45.3628V57.0729ZM52.0667 57.0729C52.0667 57.4608 51.7471 57.7767 51.3522 57.7767C50.9565 57.7767 50.6334 57.4617 50.6334 57.0729V45.3628C50.6334 44.9775 50.9556 44.6633 51.3522 44.6633C51.7462 44.6633 52.0667 44.9766 52.0667 45.3628V57.0729ZM54.7606 48.3246H53.3061V46.9647H54.7606V48.3246Z" fill="black"/>
</svg>
