<svg width="80" height="80" viewBox="0 0 80 80" fill="none" xmlns="http://www.w3.org/2000/svg">
<path d="M40 0L44.1811 0.219124L48.3165 0.874096L52.3607 1.95774L56.2695 3.45818L60 5.35898L63.5114 7.63932L66.7652 10.2742L69.7258 13.2348L72.3607 16.4886L74.641 20L76.5418 23.7305L78.0423 27.6393L79.1259 31.6835L79.7809 35.8189L80 40L79.7809 44.1811L79.1259 48.3165L78.0423 52.3607L76.5418 56.2695L74.641 60L72.3607 63.5114L69.7258 66.7652L66.7652 69.7258L63.5114 72.3607L60 74.641L56.2695 76.5418L52.3607 78.0423L48.3165 79.1259L44.1811 79.7809L40 80L35.8189 79.7809L31.6835 79.1259L27.6393 78.0423L23.7305 76.5418L20 74.641L16.4886 72.3607L13.2348 69.7258L10.2742 66.7652L7.63932 63.5114L5.35898 60L3.45818 56.2695L1.95774 52.3607L0.874096 48.3165L0.219124 44.1811L0 40L0.219124 35.8189L0.874096 31.6835L1.95774 27.6393L3.45818 23.7305L5.35898 20L7.63932 16.4886L10.2742 13.2348L13.2348 10.2742L16.4886 7.63932L20 5.35898L23.7305 3.45818L27.6393 1.95774L31.6835 0.874096L35.8189 0.219124L40 0Z" fill="#EDF2FF"/>
<path d="M38.6689 20C27.8235 20 19 28.7673 19 39.5433C19 39.6049 19.0045 39.6665 19.0144 39.8156C19.018 40.1585 19.2983 40.4343 19.6434 40.4343H38.6734C39.0211 40.4343 39.3024 40.1549 39.3024 39.8094V20.625C39.3024 20.2794 39.0157 20 38.6689 20ZM38.0434 39.1844H20.2617C20.4504 29.4717 28.298 21.5874 38.0434 21.2606V39.1844ZM40.9945 40.3031H57.1183C57.4661 40.3031 57.7473 40.0183 57.7473 39.6728C57.7473 30.6198 50.3329 23.2551 41.2182 23.2551C41.1616 23.2551 41.1077 23.2587 40.9828 23.2676C40.6395 23.273 40.3645 23.5515 40.3645 23.8926V39.6781C40.3645 40.0228 40.6467 40.3031 40.9945 40.3031ZM41.6235 24.5104C49.6499 24.7184 56.1532 31.1091 56.4767 39.0523H41.6235V24.5104ZM58.9856 41.9628C58.9748 41.6253 58.6972 41.3575 58.3575 41.3575H41.1086C40.9415 41.3575 40.7824 41.4236 40.6638 41.5405C40.5461 41.6584 40.4796 41.8173 40.4796 41.9825L40.4814 59.375C40.4814 59.7206 40.7626 60 41.1104 60C50.9754 60 59 52.0246 59 42.2235C59 42.1637 58.9955 42.103 58.9856 41.9628ZM41.7376 58.7394V42.6074H57.7374C57.5371 51.3372 50.491 58.4144 41.7376 58.7394ZM38.6734 41.3575H22.9305C22.5864 41.3575 22.3015 41.6968 22.297 42.0396C22.2925 42.0941 22.2889 42.1467 22.2889 42.203C22.2889 51.1792 29.6369 58.4805 38.6689 58.4805H38.6734C39.0211 58.4805 39.3024 58.201 39.3024 57.8555V41.9825C39.3024 41.6369 39.0202 41.3575 38.6734 41.3575ZM38.0434 57.218C30.1491 56.8975 23.7959 50.531 23.5578 42.6083H38.0434V57.218ZM28.5037 33.9009C28.156 33.9009 27.8747 34.1803 27.8747 34.5258C27.8747 34.8713 28.156 35.1508 28.5037 35.1508H29.4698V36.8828C29.4698 37.2283 29.751 37.5078 30.0988 37.5078C30.4465 37.5078 30.7278 37.2283 30.7278 36.8828V35.1508H34.564C34.9118 35.1508 35.193 34.8713 35.193 34.5258C35.193 34.1803 34.9118 33.9009 34.564 33.9009H30.7278V33.2554H32.9797C34.5451 33.2554 35.8185 31.9903 35.8185 30.3779C35.8185 28.8226 34.5451 27.5575 32.9797 27.5575H30.0988C29.751 27.5575 29.4698 27.837 29.4698 28.1825V32.0046H28.5037C28.156 32.0046 27.8747 32.284 27.8747 32.6295C27.8747 32.975 28.156 33.2545 28.5037 33.2545H29.4698V33.9H28.5037V33.9009ZM30.7287 28.8083H32.9806C33.8523 28.8083 34.5613 29.5128 34.5613 30.4359C34.5613 31.3019 33.8523 32.0054 32.9806 32.0054H30.7287V28.8083Z" fill="#111111"/>
</svg>
