<svg width="80" height="80" viewBox="0 0 80 80" fill="none" xmlns="http://www.w3.org/2000/svg">
<path d="M40 0L44.1811 0.219124L48.3165 0.874096L52.3607 1.95774L56.2695 3.45818L60 5.35898L63.5114 7.63932L66.7652 10.2742L69.7258 13.2348L72.3607 16.4886L74.641 20L76.5418 23.7305L78.0423 27.6393L79.1259 31.6835L79.7809 35.8189L80 40L79.7809 44.1811L79.1259 48.3165L78.0423 52.3607L76.5418 56.2695L74.641 60L72.3607 63.5114L69.7258 66.7652L66.7652 69.7258L63.5114 72.3607L60 74.641L56.2695 76.5418L52.3607 78.0423L48.3165 79.1259L44.1811 79.7809L40 80L35.8189 79.7809L31.6835 79.1259L27.6393 78.0423L23.7305 76.5418L20 74.641L16.4886 72.3607L13.2348 69.7258L10.2742 66.7652L7.63932 63.5114L5.35898 60L3.45818 56.2695L1.95774 52.3607L0.874096 48.3165L0.219124 44.1811L0 40L0.219124 35.8189L0.874096 31.6835L1.95774 27.6393L3.45818 23.7305L5.35898 20L7.63932 16.4886L10.2742 13.2348L13.2348 10.2742L16.4886 7.63932L20 5.35898L23.7305 3.45818L27.6393 1.95774L31.6835 0.874096L35.8189 0.219124L40 0Z" fill="#EDF2FF"/>
<path d="M59.2524 29.7242H46.2289C47.7016 29.1833 49.1551 28.465 50.1594 27.5181C51.0438 26.687 51.5315 25.5809 51.5315 24.4033C51.5315 23.2256 51.0438 22.1195 50.1604 21.2894C49.2781 20.4584 48.1037 20 46.8567 20C45.6096 20 44.4353 20.4584 43.5519 21.2894C41.5807 23.146 40.5829 26.1591 40.1059 28.2001C39.6289 26.1601 38.6299 23.146 36.661 21.2905C35.7786 20.4584 34.6043 20 33.3561 20C32.1069 20 30.9326 20.4584 30.0492 21.2894C29.1658 22.1205 28.6791 23.2266 28.6791 24.4043C28.6791 25.5819 29.1658 26.687 30.0492 27.5181C31.0545 28.464 32.5091 29.1833 33.9829 29.7242H20.7487C20.3348 29.7242 20 30.0395 20 30.4294V38.3414C20 38.7312 20.3348 39.0465 20.7487 39.0465H23.0096V59.2938C23.0096 59.6837 23.3444 60 23.7583 60H56.2438C56.6577 60 56.9925 59.6837 56.9925 59.2938V39.0465H59.2513C59.6652 39.0465 60 38.7312 60 38.3414V30.4294C60.0011 30.0405 59.6663 29.7242 59.2524 29.7242ZM44.6118 22.2878C45.2128 21.7216 46.0096 21.4103 46.8577 21.4103C47.7048 21.4103 48.5016 21.7216 49.1037 22.2878C49.7048 22.8529 50.0353 23.6044 50.0353 24.4043C50.0353 25.2041 49.7037 25.9556 49.1027 26.5208C47.2139 28.3008 43.216 29.2205 41.3519 29.5661C41.662 27.8586 42.5401 24.238 44.6118 22.2878ZM30.1765 24.4043C30.1765 23.6044 30.507 22.8519 31.108 22.2878C31.708 21.7216 32.507 21.4103 33.3561 21.4103C34.2043 21.4103 35.0032 21.7216 35.6021 22.2868C37.6674 24.234 38.5476 27.8576 38.861 29.5661C36.9968 29.2205 33.0011 28.3028 31.107 26.5198C30.507 25.9556 30.1765 25.2041 30.1765 24.4043ZM21.4973 31.1356H39.4257V37.6362H21.4973V31.1356ZM24.508 39.0465H39.4257V58.5887H24.508V39.0465ZM55.4952 58.5897H40.923V39.0465H55.4952V58.5897ZM58.5037 37.6362H40.923V31.1356H58.5037V37.6362Z" fill="#111111"/>
</svg>
