<svg width="80" height="80" viewBox="0 0 80 80" fill="none" xmlns="http://www.w3.org/2000/svg">
<path d="M40 0L44.1811 0.219124L48.3165 0.874096L52.3607 1.95774L56.2695 3.45818L60 5.35898L63.5114 7.63932L66.7652 10.2742L69.7258 13.2348L72.3607 16.4886L74.641 20L76.5418 23.7305L78.0423 27.6393L79.1259 31.6835L79.7809 35.8189L80 40L79.7809 44.1811L79.1259 48.3165L78.0423 52.3607L76.5418 56.2695L74.641 60L72.3607 63.5114L69.7258 66.7652L66.7652 69.7258L63.5114 72.3607L60 74.641L56.2695 76.5418L52.3607 78.0423L48.3165 79.1259L44.1811 79.7809L40 80L35.8189 79.7809L31.6835 79.1259L27.6393 78.0423L23.7305 76.5418L20 74.641L16.4886 72.3607L13.2348 69.7258L10.2742 66.7652L7.63932 63.5114L5.35898 60L3.45818 56.2695L1.95774 52.3607L0.874096 48.3165L0.219124 44.1811L0 40L0.219124 35.8189L0.874096 31.6835L1.95774 27.6393L3.45818 23.7305L5.35898 20L7.63932 16.4886L10.2742 13.2348L13.2348 10.2742L16.4886 7.63932L20 5.35898L23.7305 3.45818L27.6393 1.95774L31.6835 0.874096L35.8189 0.219124L40 0Z" fill="#EDF2FF"/>
<path d="M29.178 30C25.7656 30 22.9908 32.9144 22.9908 36.4955V43.2385C22.9908 46.8196 25.7667 49.7328 29.178 49.7328H29.2012C32.6136 49.7328 35.3906 46.8196 35.3906 43.2385V36.4955C35.3906 32.9144 32.6147 30 29.178 30ZM33.8411 43.2385C33.8411 45.9229 31.7602 48.1055 29.2012 48.1055H29.178C26.6201 48.1055 24.5404 45.9217 24.5404 43.2385V36.4955C24.5404 33.81 26.6201 31.6262 29.2012 31.6262C31.7602 31.6262 33.8411 33.81 33.8411 36.4955V43.2385ZM45.952 36.729C44.4068 36.729 42.9669 37.3272 41.8512 38.3691V31.6262H49.4307C49.8591 31.6262 50.2055 31.2626 50.2055 30.8131C50.2055 30.3636 49.858 30 49.4296 30H41.0764C40.648 30 40.3016 30.3636 40.3016 30.8131V40.8398C40.3016 41.2893 40.648 41.6529 41.0764 41.6529C41.5047 41.6529 41.8512 41.2893 41.8512 40.8398V40.8375C41.9054 40.7864 41.9619 40.7376 42.0017 40.6691C42.8551 39.2206 44.3316 38.3552 45.952 38.3552C48.5154 38.3552 50.6007 40.5413 50.6007 43.2292C50.6007 45.9182 48.5154 48.1055 45.952 48.1055C44.4788 48.1055 43.0786 47.3597 42.2065 46.1122C41.9541 45.751 41.4693 45.6696 41.1229 45.938C40.7775 46.204 40.7034 46.7127 40.9569 47.0752C42.119 48.7397 43.9862 49.7328 45.952 49.7328C49.3699 49.7328 52.1513 46.815 52.1513 43.2292C52.1502 39.6457 49.3699 36.729 45.952 36.729ZM37.7603 47.7628C37.1693 47.7628 36.6911 48.2623 36.6911 48.8802C36.6911 49.5005 37.1693 50 37.7603 50C38.3447 50 38.8251 49.5005 38.8251 48.8802C38.8251 48.2623 38.3458 47.7628 37.7603 47.7628ZM19.4058 39.3553H12.7748C12.3464 39.3553 12 39.7189 12 40.1684C12 40.618 12.3464 40.9815 12.7748 40.9815H19.4058C19.8341 40.9815 20.1806 40.618 20.1806 40.1684C20.1806 39.7189 19.8341 39.3553 19.4058 39.3553ZM57.5515 36.6419C59.2948 36.6419 60.7126 35.1527 60.7126 33.3233C60.7126 31.4915 59.2948 30.0012 57.5515 30.0012C55.8072 30.0012 54.3882 31.4915 54.3882 33.3233C54.3882 35.1527 55.8072 36.6419 57.5515 36.6419ZM57.5515 31.6262C58.4403 31.6262 59.1631 32.387 59.1631 33.3221C59.1631 34.256 58.4403 35.0145 57.5515 35.0145C56.6616 35.0145 55.9378 34.256 55.9378 33.3221C55.9378 32.387 56.6628 31.6262 57.5515 31.6262ZM64.8356 37.8778C63.0923 37.8778 61.6734 39.3669 61.6734 41.1964C61.6734 43.0271 63.0923 44.5162 64.8356 44.5162C66.5799 44.5162 68 43.0271 68 41.1964C68.0011 39.3669 66.581 37.8778 64.8356 37.8778ZM64.8356 42.8912C63.9457 42.8912 63.2229 42.1315 63.2229 41.1976C63.2229 40.2637 63.9457 39.5052 64.8356 39.5052C65.7266 39.5052 66.4504 40.2637 66.4504 41.1976C66.4504 42.1315 65.7266 42.8912 64.8356 42.8912ZM67.5285 30.5123C67.2263 30.1951 66.7349 30.1951 66.4327 30.5123L55.101 42.4021C54.7989 42.7192 54.7989 43.235 55.101 43.5521C55.2527 43.7112 55.4508 43.7902 55.6489 43.7902C55.847 43.7902 56.0451 43.7112 56.1968 43.5521L67.5285 31.6622C67.8307 31.3451 67.8307 30.8294 67.5285 30.5123Z" fill="#111111"/>
</svg>
