<svg width="80" height="80" viewBox="0 0 80 80" fill="none" xmlns="http://www.w3.org/2000/svg">
<path d="M40 0L44.1811 0.219124L48.3165 0.874096L52.3607 1.95774L56.2695 3.45818L60 5.35898L63.5114 7.63932L66.7652 10.2742L69.7258 13.2348L72.3607 16.4886L74.641 20L76.5418 23.7305L78.0423 27.6393L79.1259 31.6835L79.7809 35.8189L80 40L79.7809 44.1811L79.1259 48.3165L78.0423 52.3607L76.5418 56.2695L74.641 60L72.3607 63.5114L69.7258 66.7652L66.7652 69.7258L63.5114 72.3607L60 74.641L56.2695 76.5418L52.3607 78.0423L48.3165 79.1259L44.1811 79.7809L40 80L35.8189 79.7809L31.6835 79.1259L27.6393 78.0423L23.7305 76.5418L20 74.641L16.4886 72.3607L13.2348 69.7258L10.2742 66.7652L7.63932 63.5114L5.35898 60L3.45818 56.2695L1.95774 52.3607L0.874096 48.3165L0.219124 44.1811L0 40L0.219124 35.8189L0.874096 31.6835L1.95774 27.6393L3.45818 23.7305L5.35898 20L7.63932 16.4886L10.2742 13.2348L13.2348 10.2742L16.4886 7.63932L20 5.35898L23.7305 3.45818L27.6393 1.95774L31.6835 0.874096L35.8189 0.219124L40 0Z" fill="#EDF2FF"/>
<path d="M49.5167 18C47.3115 18 45.5184 19.7967 45.5184 22.0059V25.9887C45.5184 28.1961 47.3115 29.9928 49.5167 29.9928H49.5296C51.7348 29.9928 53.5298 28.1961 53.5298 25.9887V22.0059C53.5298 19.7967 51.7348 18 49.5167 18ZM52.2364 25.9887C52.2364 27.4819 51.0225 28.6976 49.5296 28.6976H49.5167C48.0247 28.6976 46.8118 27.4828 46.8118 25.9887V22.0059C46.8118 20.5118 48.0247 19.2961 49.5287 19.2961C51.0207 19.2961 52.2355 20.5118 52.2355 22.0059V25.9887H52.2364ZM55.5705 20.3684C56.1248 20.3684 56.5719 19.9197 56.5719 19.3674C56.5719 18.8123 56.1248 18.3645 55.5705 18.3645C55.0181 18.3645 54.5691 18.8132 54.5691 19.3674C54.5691 19.9197 55.0181 20.3684 55.5705 20.3684ZM58.9046 21.993C58.3521 21.993 57.905 22.4417 57.905 22.9949C57.905 23.55 58.3521 23.9969 58.9046 23.9969C59.4589 23.9969 59.9078 23.55 59.9078 22.9949C59.9078 22.4417 59.4589 21.993 58.9046 21.993ZM59.8108 18.5986C59.5586 18.346 59.1485 18.346 58.8963 18.5986L54.7465 22.7525C54.4943 23.0051 54.4943 23.4159 54.7465 23.6684C54.873 23.7952 55.0384 23.8581 55.2047 23.8581C55.3691 23.8581 55.5345 23.7952 55.661 23.6684L59.8108 19.5145C60.063 19.2619 60.063 18.8511 59.8108 18.5986ZM34.0861 25.7361C33.7286 25.7361 33.4394 26.0257 33.4394 26.3838V34.3345C33.4394 34.6916 33.7286 34.9821 34.0852 34.9821L47.3143 34.9969C47.4861 34.9969 47.6497 34.9285 47.7725 34.8073C47.8935 34.6861 47.9619 34.5214 47.9619 34.3493V31.4675C47.9619 31.1094 47.6718 30.8199 47.3143 30.8199C46.9568 30.8199 46.6686 31.1094 46.6686 31.4675V33.7017L34.7337 33.6879V27.0314H43.8722C44.2297 27.0314 44.5179 26.7418 44.5179 26.3838C44.5179 26.0257 44.2287 25.7361 43.8722 25.7361H34.0861ZM52.0572 56.7048H50.6909V31.6729C50.6909 31.3148 50.4017 31.0253 50.0451 31.0253C49.6885 31.0253 49.3975 31.3148 49.3975 31.6729V56.7048H32.1378V24.4585C32.1378 23.6101 32.826 22.92 33.6713 22.92H43.6486C44.0061 22.92 44.2962 22.6304 44.2962 22.2724C44.2962 21.9143 44.0061 21.6248 43.6486 21.6248H33.6713C32.1119 21.6248 30.8435 22.8959 30.8435 24.4585V28.3432H27.7838C27.4263 28.3432 27.1371 28.6328 27.1371 28.9908V35.0192C26.1782 36.1821 20.8052 42.697 17.9885 46.0553C15.9422 48.4931 15.4175 51.9606 16.6841 54.6815C17.6652 56.7899 19.5387 57.9991 21.827 57.9991C27.4706 57.9991 28.4129 52.746 28.4222 52.6933C28.4277 52.6582 28.4314 52.623 28.4314 52.5869V43.8211H30.8435V56.7048H29.4688C29.1113 56.7048 28.8222 56.9944 28.8222 57.3524C28.8222 57.7104 29.1113 58 29.4688 58H52.0572C52.4147 58 52.703 57.7104 52.703 57.3524C52.703 56.9944 52.4147 56.7048 52.0572 56.7048ZM30.8444 42.5259H27.7847C27.4272 42.5259 27.138 42.8154 27.138 43.1735V52.5286C27.042 53.0208 26.1773 56.7048 21.8279 56.7048C19.413 56.7048 18.3035 55.0959 17.8573 54.1366C16.8162 51.8977 17.2772 48.9178 18.9798 46.8898C22.0681 43.2086 28.2217 35.7398 28.2836 35.6649C28.3797 35.5493 28.4314 35.4031 28.4314 35.2532V29.6403H30.8435V42.5259H30.8444Z" fill="#111111"/>
</svg>
