<svg width="80" height="80" viewBox="0 0 80 80" fill="none" xmlns="http://www.w3.org/2000/svg">
<path d="M40 0L44.1811 0.219124L48.3165 0.874096L52.3607 1.95774L56.2695 3.45818L60 5.35898L63.5114 7.63932L66.7652 10.2742L69.7258 13.2348L72.3607 16.4886L74.641 20L76.5418 23.7305L78.0423 27.6393L79.1259 31.6835L79.7809 35.8189L80 40L79.7809 44.1811L79.1259 48.3165L78.0423 52.3607L76.5418 56.2695L74.641 60L72.3607 63.5114L69.7258 66.7652L66.7652 69.7258L63.5114 72.3607L60 74.641L56.2695 76.5418L52.3607 78.0423L48.3165 79.1259L44.1811 79.7809L40 80L35.8189 79.7809L31.6835 79.1259L27.6393 78.0423L23.7305 76.5418L20 74.641L16.4886 72.3607L13.2348 69.7258L10.2742 66.7652L7.63932 63.5114L5.35898 60L3.45818 56.2695L1.95774 52.3607L0.874096 48.3165L0.219124 44.1811L0 40L0.219124 35.8189L0.874096 31.6835L1.95774 27.6393L3.45818 23.7305L5.35898 20L7.63932 16.4886L10.2742 13.2348L13.2348 10.2742L16.4886 7.63932L20 5.35898L23.7305 3.45818L27.6393 1.95774L31.6835 0.874096L35.8189 0.219124L40 0Z" fill="#EDF2FF"/>
<path d="M59.2343 47.9756C58.8115 47.9756 58.4696 48.3175 58.4696 48.7403V58.4707H48.7545C48.3317 58.4707 47.9898 58.8137 47.9898 59.2365C47.9898 59.6592 48.3317 60 48.7545 60H59.2343C59.657 60 59.9989 59.6581 59.9989 59.2365V48.7403C59.9989 48.3175 59.657 47.9756 59.2343 47.9756ZM59.2343 20H49.0374C48.6147 20 48.2728 20.3419 48.2728 20.7646C48.2728 21.1874 48.6147 21.5293 49.0374 21.5293H58.4696V31.003C58.4696 31.4258 58.8115 31.7677 59.2343 31.7677C59.657 31.7677 59.9989 31.4258 59.9989 31.003V20.7646C59.9989 20.3419 59.657 20 59.2343 20ZM20.7646 32.3357C21.1874 32.3357 21.5293 31.9938 21.5293 31.571V21.5293H30.8763C31.2991 21.5293 31.641 21.1874 31.641 20.7646C31.641 20.3419 31.2991 20 30.8763 20H20.7646C20.3419 20 20 20.3419 20 20.7646V31.571C20 31.9938 20.3419 32.3357 20.7646 32.3357ZM30.1674 58.4707H21.5293V49.4492C21.5293 49.0265 21.1874 48.6846 20.7646 48.6846C20.3419 48.6846 20 49.0276 20 49.4492V59.2354C20 59.6581 20.3419 59.9989 20.7646 59.9989H30.1663C30.589 59.9989 30.9309 59.657 30.9309 59.2354C30.9309 58.8137 30.589 58.4707 30.1674 58.4707ZM28.9571 33.8038C28.9571 36.3544 31.0314 38.4298 33.582 38.4298C36.1337 38.4298 38.2102 36.3544 38.2102 33.8038C38.2102 31.2521 36.1337 29.1767 33.582 29.1767C31.0325 29.1756 28.9571 31.2521 28.9571 33.8038ZM33.5831 30.7059C35.2915 30.7059 36.6821 32.0954 36.6821 33.8038C36.6821 35.5111 35.2926 36.9005 33.5831 36.9005C31.8758 36.9005 30.4875 35.5122 30.4875 33.8038C30.4875 32.0954 31.8758 30.7059 33.5831 30.7059ZM51.2734 46.8658C51.2734 44.3152 49.1991 42.2398 46.6485 42.2398C44.0968 42.2398 42.0214 44.3152 42.0214 46.8658C42.0214 49.4175 44.0968 51.494 46.6485 51.494C49.198 51.4951 51.2734 49.4175 51.2734 46.8658ZM46.6485 49.9648C44.9412 49.9648 43.5506 48.5753 43.5506 46.8658C43.5506 45.1585 44.9401 43.7691 46.6485 43.7691C48.3558 43.7691 49.7441 45.1574 49.7441 46.8658C49.743 48.5753 48.3547 49.9648 46.6485 49.9648ZM29.6857 50.8266C29.8353 50.9763 30.0309 51.0505 30.2264 51.0505C30.4219 51.0505 30.6174 50.9763 30.7671 50.8266L50.606 30.9888C50.9042 30.6906 50.9042 30.2056 50.606 29.9074C50.3078 29.6092 49.8228 29.6092 49.5246 29.9074L29.6857 49.7452C29.3875 50.0434 29.3875 50.5284 29.6857 50.8266Z" fill="#111111"/>
</svg>
