<svg width="80" height="80" viewBox="0 0 80 80" fill="none" xmlns="http://www.w3.org/2000/svg">
<path d="M40 0L44.1811 0.219124L48.3165 0.874096L52.3607 1.95774L56.2695 3.45818L60 5.35898L63.5114 7.63932L66.7652 10.2742L69.7258 13.2348L72.3607 16.4886L74.641 20L76.5418 23.7305L78.0423 27.6393L79.1259 31.6835L79.7809 35.8189L80 40L79.7809 44.1811L79.1259 48.3165L78.0423 52.3607L76.5418 56.2695L74.641 60L72.3607 63.5114L69.7258 66.7652L66.7652 69.7258L63.5114 72.3607L60 74.641L56.2695 76.5418L52.3607 78.0423L48.3165 79.1259L44.1811 79.7809L40 80L35.8189 79.7809L31.6835 79.1259L27.6393 78.0423L23.7305 76.5418L20 74.641L16.4886 72.3607L13.2348 69.7258L10.2742 66.7652L7.63932 63.5114L5.35898 60L3.45818 56.2695L1.95774 52.3607L0.874096 48.3165L0.219124 44.1811L0 40L0.219124 35.8189L0.874096 31.6835L1.95774 27.6393L3.45818 23.7305L5.35898 20L7.63932 16.4886L10.2742 13.2348L13.2348 10.2742L16.4886 7.63932L20 5.35898L23.7305 3.45818L27.6393 1.95774L31.6835 0.874096L35.8189 0.219124L40 0Z" fill="#EDF2FF"/>
<path d="M48.0012 53.6731C48.0012 53.244 47.6548 52.8981 47.2265 52.8981H20.6653C18.6643 52.8981 16.9932 51.8437 16.6247 50.4499H50.5145C50.9428 50.4499 51.2892 50.1029 51.2892 49.6738C51.2892 49.2447 50.9428 48.8977 50.5145 48.8977H21.5816V27.6769C21.5816 25.4028 23.4288 23.5534 25.7008 23.5534H53.7483C56.0182 23.5534 57.8642 25.4028 57.8642 27.6769V35.0957C57.8642 35.5248 58.2106 35.8718 58.6389 35.8718C59.0672 35.8718 59.4136 35.5248 59.4136 35.0957V27.6769C59.4136 24.5468 56.8715 22 53.7483 22H25.7008C22.5755 22 20.0322 24.5468 20.0322 27.6769V48.8988H15.7747C15.3464 48.8988 15 49.2458 15 49.6749V49.8734C15 52.3969 17.541 54.4515 20.6653 54.4515H47.2265C47.6548 54.4515 48.0012 54.1022 48.0012 53.6731ZM54.429 33.4148C54.18 32.8582 53.2669 32.8582 53.0168 33.4148L51.121 37.6348L46.9088 39.5352C46.6311 39.6605 46.4518 39.9377 46.4518 40.2426C46.4518 40.5475 46.6311 40.8247 46.9088 40.95L51.121 42.8504L53.0168 47.0693C53.1419 47.3476 53.4185 47.5272 53.724 47.5272C54.0295 47.5272 54.305 47.3487 54.4301 47.0704L56.3303 42.8504L60.5392 40.95C60.818 40.8247 60.9962 40.5475 60.9962 40.2426C60.9962 39.9377 60.818 39.6605 60.5403 39.5352L56.3303 37.6348L54.429 33.4148ZM55.425 41.5565C55.2524 41.6341 55.114 41.7727 55.0366 41.9457L53.724 44.8628L52.4125 41.9457C52.3351 41.7727 52.1967 41.6352 52.023 41.5565L49.1123 40.2426L52.023 38.9287C52.1956 38.8511 52.334 38.7125 52.4125 38.5395L53.724 35.6224L55.0377 38.5395C55.114 38.7125 55.2524 38.85 55.425 38.9287L58.3346 40.2426L55.425 41.5565ZM68.5429 42.6708L66.6549 41.8182L65.8016 39.9244C65.6765 39.6472 65.401 39.4676 65.0955 39.4676C64.7912 39.4676 64.5145 39.6472 64.3883 39.9255L63.5373 41.8193L61.6481 42.6719C61.3703 42.7972 61.191 43.0744 61.191 43.3793C61.191 43.6842 61.3703 43.9614 61.6481 44.0878L63.5373 44.9405L64.3883 46.8331C64.5134 47.1114 64.7901 47.2911 65.0955 47.2911C65.401 47.2911 65.6754 47.1125 65.8016 46.8342L66.6549 44.9405L68.5429 44.0878C68.8218 43.9625 69 43.6853 69 43.3793C69 43.0733 68.8218 42.795 68.5429 42.6708ZM65.7507 43.6432C65.578 43.7208 65.4408 43.8594 65.3622 44.0324L65.0955 44.6245L64.8299 44.0335C64.7524 43.8605 64.6141 43.7219 64.4403 43.6432L63.8516 43.3782L64.4403 43.1132C64.613 43.0356 64.7513 42.897 64.8299 42.7229L65.0955 42.1319L65.3622 42.724C65.4397 42.8959 65.5769 43.0345 65.7507 43.1132L66.3383 43.3782L65.7507 43.6432ZM59.7025 45.9639C59.5575 45.8186 59.3594 45.7366 59.1547 45.7366C58.9499 45.7366 58.7529 45.8186 58.6068 45.9639L45.8331 58.7624C45.531 59.0651 45.531 59.5574 45.8331 59.8601L47.7411 61.7727C47.8861 61.9179 48.0842 62 48.2889 62C48.4937 62 48.6907 61.9179 48.8367 61.7727L59.0418 51.5487C59.044 51.5476 59.0451 51.5476 59.0462 51.5465C59.0473 51.5454 59.0473 51.5432 59.0484 51.5421L61.6105 48.9764C61.9126 48.6737 61.9126 48.1814 61.6105 47.8787L59.7025 45.9639ZM48.2889 60.1251L47.4777 59.3112L56.5871 50.1827L57.4016 50.9977L48.2889 60.1251ZM58.4984 49.9L57.6838 49.085L59.1547 47.6115L59.9681 48.4275L58.4984 49.9ZM65.9787 50.4577H65.0767V49.5552C65.0767 49.1261 64.7303 48.779 64.302 48.779C63.8737 48.779 63.5273 49.1261 63.5273 49.5552V50.4577H62.6253C62.197 50.4577 61.8506 50.8047 61.8506 51.2338C61.8506 51.6629 62.197 52.0111 62.6253 52.0111H63.5273V52.9136C63.5273 53.3427 63.8737 53.6887 64.302 53.6887C64.7303 53.6887 65.0767 53.3416 65.0767 52.9136V52.0111H65.9787C66.407 52.0111 66.7534 51.6629 66.7534 51.2338C66.7534 50.8047 66.407 50.4577 65.9787 50.4577ZM35.0537 28.8123C35.0537 28.3832 34.7073 28.0361 34.279 28.0361H28.3282C27.8999 28.0361 27.5535 28.3832 27.5535 28.8123V34.7741C27.5535 35.2032 27.8999 35.5503 28.3282 35.5503H34.279C34.7073 35.5503 35.0537 35.2032 35.0537 34.7741V28.8123ZM33.5043 33.9969H29.1029V29.5884H33.5043V33.9969ZM43.8266 28.8123C43.8266 28.3832 43.4802 28.0361 43.0519 28.0361H37.1022C36.6739 28.0361 36.3275 28.3832 36.3275 28.8123V34.7741C36.3275 35.2032 36.6739 35.5503 37.1022 35.5503H43.0519C43.4802 35.5503 43.8266 35.2032 43.8266 34.7741V28.8123ZM42.2761 33.9969H37.8758V29.5884H42.2761V33.9969ZM52.0042 29.5884C52.4325 29.5884 52.7789 29.2414 52.7789 28.8123C52.7789 28.3832 52.4325 28.0361 52.0042 28.0361H46.0545C45.6262 28.0361 45.2798 28.3832 45.2798 28.8123V34.7741C45.2798 35.2032 45.6262 35.5503 46.0545 35.5503H49.348C49.7763 35.5503 50.1227 35.2032 50.1227 34.7741C50.1227 34.345 49.7763 33.998 49.348 33.998H46.8292V29.5884H52.0042ZM34.279 36.9019H28.3282C27.8999 36.9019 27.5535 37.2489 27.5535 37.678V43.6399C27.5535 44.069 27.8999 44.416 28.3282 44.416H34.279C34.7073 44.416 35.0537 44.069 35.0537 43.6399V37.678C35.0537 37.2489 34.7073 36.9019 34.279 36.9019ZM33.5043 42.8637H29.1029V38.4542H33.5043V42.8637ZM43.0519 36.9019H37.1022C36.6739 36.9019 36.3275 37.2489 36.3275 37.678V43.6399C36.3275 44.069 36.6739 44.416 37.1022 44.416H43.0519C43.4802 44.416 43.8266 44.069 43.8266 43.6399V37.678C43.8266 37.2489 43.4791 36.9019 43.0519 36.9019ZM42.2761 42.8637H37.8758V38.4542H42.2761V42.8637Z" fill="#111111"/>
</svg>
