<svg width="80" height="80" viewBox="0 0 80 80" fill="none" xmlns="http://www.w3.org/2000/svg">
<path d="M40 0L44.1811 0.219124L48.3165 0.874096L52.3607 1.95774L56.2695 3.45818L60 5.35898L63.5114 7.63932L66.7652 10.2742L69.7258 13.2348L72.3607 16.4886L74.641 20L76.5418 23.7305L78.0423 27.6393L79.1259 31.6835L79.7809 35.8189L80 40L79.7809 44.1811L79.1259 48.3165L78.0423 52.3607L76.5418 56.2695L74.641 60L72.3607 63.5114L69.7258 66.7652L66.7652 69.7258L63.5114 72.3607L60 74.641L56.2695 76.5418L52.3607 78.0423L48.3165 79.1259L44.1811 79.7809L40 80L35.8189 79.7809L31.6835 79.1259L27.6393 78.0423L23.7305 76.5418L20 74.641L16.4886 72.3607L13.2348 69.7258L10.2742 66.7652L7.63932 63.5114L5.35898 60L3.45818 56.2695L1.95774 52.3607L0.874096 48.3165L0.219124 44.1811L0 40L0.219124 35.8189L0.874096 31.6835L1.95774 27.6393L3.45818 23.7305L5.35898 20L7.63932 16.4886L10.2742 13.2348L13.2348 10.2742L16.4886 7.63932L20 5.35898L23.7305 3.45818L27.6393 1.95774L31.6835 0.874096L35.8189 0.219124L40 0Z" fill="#EDF2FF"/>
<path d="M58.4719 26.3226H24.3898C23.9732 26.3226 23.6362 26.6677 23.6362 27.0945C23.6362 27.5212 23.9732 27.8663 24.3898 27.8663H58.4719C59.5862 27.8663 60.4927 28.9194 60.4927 30.2139V53.1109C60.4927 54.4054 59.5862 55.4563 58.4719 55.4563H21.5292C20.4138 55.4563 19.5073 54.4054 19.5073 53.1109V24.8913C19.5073 23.5968 20.4149 22.5437 21.5292 22.5437H54.203C54.6197 22.5437 54.9566 22.1986 54.9566 21.7719C54.9566 21.3451 54.6197 21 54.203 21H21.5292C19.5837 21 18 22.7455 18 24.8913V53.1109C18 55.2556 19.5837 57 21.5292 57H58.4719C60.4173 57 62 55.2556 62 53.1109V30.2139C62 28.0681 60.4163 26.3226 58.4719 26.3226ZM56.4499 41.6519C56.4499 40.042 55.1698 38.732 53.5947 38.732C52.0228 38.732 50.7448 40.042 50.7448 41.6519C50.7448 43.2618 52.0239 44.5718 53.5947 44.5718C55.1687 44.5729 56.4499 43.2618 56.4499 41.6519ZM52.2511 41.6519C52.2511 40.8933 52.854 40.2758 53.5936 40.2758C54.3365 40.2758 54.9416 40.8933 54.9416 41.6519C54.9416 42.4106 54.3365 43.0281 53.5936 43.0281C52.854 43.0292 52.2511 42.4117 52.2511 41.6519ZM24.6127 41.6519C24.6127 42.3742 24.8862 43.0534 25.3847 43.564C25.8821 44.0723 26.5431 44.3524 27.244 44.3524H28.242L27.5379 45.0746C26.513 46.1244 26.513 47.8368 27.539 48.8932C28.0547 49.418 28.7298 49.6805 29.4059 49.6805C30.0809 49.6805 30.756 49.4191 31.2706 48.8943L31.9726 48.1753V49.1909C31.9726 50.6806 33.1558 51.8913 34.6104 51.8913C36.0649 51.8913 37.2481 50.6795 37.2481 49.1909V48.172L37.9512 48.8921C38.4647 49.418 39.1398 49.6805 39.8137 49.6805C40.4877 49.6805 41.1638 49.418 41.6774 48.8921C42.177 48.3804 42.4515 47.7012 42.4504 46.9778C42.4493 46.2567 42.1737 45.5796 41.6774 45.0746L38.3388 41.6508L41.6774 38.2292C42.7034 37.1773 42.7034 35.4648 41.6774 34.4129C40.6826 33.3929 38.9449 33.3907 37.9512 34.4085L37.2481 35.1274V34.113C37.247 32.6244 36.0627 31.4125 34.6093 31.4125C33.1547 31.4125 31.9715 32.6233 31.9715 34.1119V35.1285L31.2706 34.4118C30.2414 33.3598 28.5672 33.3598 27.5412 34.4118C27.0416 34.9223 26.7671 35.6016 26.7671 36.3227C26.7671 37.0439 27.0427 37.722 27.5401 38.2292L28.2442 38.9515H27.2494C25.7949 38.9515 24.6127 40.1644 24.6127 41.6519ZM35.7408 49.1909C35.7408 49.8282 35.2337 50.3476 34.6104 50.3476C33.987 50.3476 33.4799 49.8282 33.4799 49.1909V46.6316L35.7419 44.3149L35.7408 49.1909ZM40.6137 46.1674C40.8258 46.3835 40.9431 46.6724 40.9431 46.98C40.9442 47.2899 40.8258 47.5821 40.6126 47.8004C40.1723 48.2503 39.4574 48.2503 39.017 47.8004L37.2481 45.9876V42.7678L37.274 42.7414L40.6137 46.1674ZM37.0253 37.539L37.0296 37.5345L39.017 35.5001C39.2291 35.2829 39.5101 35.1638 39.8116 35.1638C40.1141 35.1638 40.3984 35.284 40.6126 35.5034C41.0519 35.9544 41.0519 36.6877 40.6126 37.1387L36.7432 41.1039C36.7432 41.1039 36.7432 41.1039 36.7432 41.105L35.4114 42.469C35.0109 42.8792 34.3444 42.8891 33.9095 42.5363C33.8223 42.4657 33.7534 42.3808 33.6909 42.286C33.6489 42.222 33.5951 42.1647 33.5671 42.0941C33.5133 41.9618 33.4842 41.8162 33.482 41.6641C33.4777 41.363 33.5854 41.0598 33.8072 40.8304L37.0253 37.539ZM33.4799 34.1119C33.4799 33.4745 33.987 32.9574 34.6104 32.9574C35.2337 32.9574 35.7408 33.4767 35.7419 34.1141V36.6712L33.4799 38.9868V34.1119ZM33.5725 44.3535L30.2048 47.8026C29.7644 48.2536 29.0452 48.2536 28.6049 47.8026C28.1656 47.3505 28.1645 46.6173 28.6038 46.1674L30.3027 44.4262C30.3243 44.4042 30.3318 44.3766 30.349 44.3546H33.5725V44.3535ZM28.6081 35.5034C29.0474 35.0535 29.7655 35.0524 30.2069 35.5034L31.9726 37.3096V40.5867L28.607 37.1365C28.3939 36.9193 28.2754 36.6304 28.2754 36.3216C28.2754 36.014 28.3928 35.724 28.6081 35.5034ZM29.7526 40.4963L32.0092 42.8097H27.2451C26.9447 42.8097 26.6615 42.6906 26.4494 42.4723C26.2363 42.2551 26.1189 41.964 26.1189 41.6541C26.1189 41.0157 26.6249 40.4963 27.2483 40.4963H29.7526ZM34.6104 42.2716C34.9441 42.2716 35.2154 41.9938 35.2154 41.6519C35.2154 41.3101 34.9441 41.0322 34.6104 41.0322C34.2766 41.0322 34.0053 41.3101 34.0053 41.6519C34.0053 41.9938 34.2766 42.2716 34.6104 42.2716Z" fill="#111111"/>
</svg>
