<svg width="80" height="80" viewBox="0 0 80 80" fill="none" xmlns="http://www.w3.org/2000/svg">
<path d="M40 0L44.1811 0.219124L48.3165 0.874096L52.3607 1.95774L56.2695 3.45818L60 5.35898L63.5114 7.63932L66.7652 10.2742L69.7258 13.2348L72.3607 16.4886L74.641 20L76.5418 23.7305L78.0423 27.6393L79.1259 31.6835L79.7809 35.8189L80 40L79.7809 44.1811L79.1259 48.3165L78.0423 52.3607L76.5418 56.2695L74.641 60L72.3607 63.5114L69.7258 66.7652L66.7652 69.7258L63.5114 72.3607L60 74.641L56.2695 76.5418L52.3607 78.0423L48.3165 79.1259L44.1811 79.7809L40 80L35.8189 79.7809L31.6835 79.1259L27.6393 78.0423L23.7305 76.5418L20 74.641L16.4886 72.3607L13.2348 69.7258L10.2742 66.7652L7.63932 63.5114L5.35898 60L3.45818 56.2695L1.95774 52.3607L0.874096 48.3165L0.219124 44.1811L0 40L0.219124 35.8189L0.874096 31.6835L1.95774 27.6393L3.45818 23.7305L5.35898 20L7.63932 16.4886L10.2742 13.2348L13.2348 10.2742L16.4886 7.63932L20 5.35898L23.7305 3.45818L27.6393 1.95774L31.6835 0.874096L35.8189 0.219124L40 0Z" fill="#EDF2FF"/>
<path d="M55.9724 38.3105C55.5916 38.3105 55.2836 38.6274 55.2836 39.0191V52.456C55.2836 53.6282 54.3577 54.5818 53.2183 54.5818H22.4428C21.3044 54.5818 20.3775 53.6293 20.3775 52.456V29.1839C20.3775 28.0116 21.3034 27.0581 22.4428 27.0581H45.6273C46.0081 27.0581 46.316 26.7412 46.316 26.3495C46.316 25.9577 46.0081 25.6409 45.6273 25.6409H22.4428C20.5448 25.6409 19 27.2302 19 29.1839V52.457C19 54.4107 20.5448 56 22.4428 56H53.2183C55.1173 56 56.6611 54.4107 56.6611 52.457V39.0191C56.6611 38.6284 56.3532 38.3105 55.9724 38.3105ZM30.2533 48.4322H34.9614C35.1001 49.9729 36.3497 51.1887 37.8827 51.1887C39.4157 51.1887 40.6663 49.9739 40.805 48.4322H45.5102V45.8104L45.1599 45.608C45.1412 45.5969 43.3691 44.5319 43.3691 43.2221C43.3691 41.8535 43.3514 39.177 43.3514 39.177C43.3514 36.2941 41.2458 33.9112 38.5341 33.5609V32.413C38.5341 32.0213 38.2261 31.7044 37.8453 31.7044C37.4645 31.7044 37.1566 32.0213 37.1566 32.413V33.5609C34.4448 33.9112 32.3392 36.2941 32.3392 39.177V43.054C32.3392 44.1544 31.0365 45.3863 30.5347 45.7679L30.2543 45.9815V48.4322H30.2533ZM37.8817 49.7705C37.1074 49.7705 36.4668 49.1914 36.3379 48.4322H39.4265C39.2976 49.1914 38.6571 49.7705 37.8817 49.7705ZM31.6308 46.681C32.2733 46.1293 33.7157 44.7091 33.7157 43.054V39.177C33.7157 36.8356 35.5675 34.9295 37.8443 34.9295C40.1202 34.9295 41.972 36.8356 41.972 39.1821C41.972 39.1821 41.9877 41.6227 41.9897 43.0318H38.9769C38.5961 43.0318 38.2881 43.3486 38.2881 43.7404C38.2881 44.1321 38.5961 44.4489 38.9769 44.4489H42.2563C42.707 45.4926 43.625 46.2548 44.1307 46.6132V47.0151H31.6308V46.681ZM37.1271 43.0307H36.4117C36.031 43.0307 35.723 43.3476 35.723 43.7393C35.723 44.1311 36.031 44.4479 36.4117 44.4479H37.1271C37.5078 44.4479 37.8158 44.1311 37.8158 43.7393C37.8158 43.3476 37.5078 43.0307 37.1271 43.0307ZM40.7765 31.756C40.4213 31.6062 40.0218 31.7803 39.8772 32.1417C39.7325 32.5041 39.9008 32.9181 40.252 33.0669C42.6086 34.062 44.1307 36.3983 44.1307 39.0191C44.1307 39.4109 44.4387 39.7277 44.8195 39.7277C45.2003 39.7277 45.5082 39.4109 45.5082 39.0191C45.5092 35.8223 43.6515 32.9708 40.7765 31.756ZM31.6328 39.0191C31.6328 36.4287 33.1303 34.1035 35.4494 33.0933C35.7997 32.9414 35.9631 32.5244 35.8155 32.165C35.6679 31.8056 35.2645 31.6376 34.9132 31.7884C32.0844 33.0204 30.2552 35.8588 30.2552 39.0191C30.2552 39.4109 30.5632 39.7277 30.944 39.7277C31.3248 39.7277 31.6328 39.4109 31.6328 39.0191ZM56.0806 18.722C51.1639 18.722 47.1632 22.8379 47.1632 27.8962C47.1632 32.9566 51.1639 37.0725 56.0806 37.0725C60.9993 37.0725 65 32.9566 65 27.8962C65 22.8379 60.9993 18.722 56.0806 18.722ZM56.0806 35.6553C51.9225 35.6553 48.5407 32.1751 48.5407 27.8962C48.5407 23.6184 51.9235 20.1392 56.0806 20.1392C60.2397 20.1392 63.6225 23.6194 63.6225 27.8962C63.6225 32.1751 60.2387 35.6553 56.0806 35.6553ZM53.2164 17.4172H58.9458C59.3266 17.4172 59.6346 17.1003 59.6346 16.7086C59.6346 16.3168 59.3266 16 58.9468 16H53.2174C52.8366 16 52.5286 16.3168 52.5286 16.7086C52.5286 17.1003 52.8366 17.4172 53.2164 17.4172ZM56.7694 27.6037V22.8774C56.7694 22.4856 56.4614 22.1688 56.0806 22.1688C55.6998 22.1688 55.3919 22.4856 55.3919 22.8774V27.8962C55.3919 27.8983 55.3928 27.9003 55.3928 27.9023C55.3938 27.9924 55.4115 28.0815 55.445 28.1665C55.4804 28.2536 55.5316 28.3325 55.5946 28.3983L58.7963 31.6933C58.9311 31.832 59.1062 31.9018 59.2833 31.9018C59.4595 31.9018 59.6356 31.833 59.7704 31.6943C60.039 31.4179 60.039 30.9695 59.7704 30.6921L56.7694 27.6037Z" fill="#111111"/>
</svg>
