<svg width="80" height="80" viewBox="0 0 80 80" fill="none" xmlns="http://www.w3.org/2000/svg">
<path d="M40 0L44.1811 0.219124L48.3165 0.874096L52.3607 1.95774L56.2695 3.45818L60 5.35898L63.5114 7.63932L66.7652 10.2742L69.7258 13.2348L72.3607 16.4886L74.641 20L76.5418 23.7305L78.0423 27.6393L79.1259 31.6835L79.7809 35.8189L80 40L79.7809 44.1811L79.1259 48.3165L78.0423 52.3607L76.5418 56.2695L74.641 60L72.3607 63.5114L69.7258 66.7652L66.7652 69.7258L63.5114 72.3607L60 74.641L56.2695 76.5418L52.3607 78.0423L48.3165 79.1259L44.1811 79.7809L40 80L35.8189 79.7809L31.6835 79.1259L27.6393 78.0423L23.7305 76.5418L20 74.641L16.4886 72.3607L13.2348 69.7258L10.2742 66.7652L7.63932 63.5114L5.35898 60L3.45818 56.2695L1.95774 52.3607L0.874096 48.3165L0.219124 44.1811L0 40L0.219124 35.8189L0.874096 31.6835L1.95774 27.6393L3.45818 23.7305L5.35898 20L7.63932 16.4886L10.2742 13.2348L13.2348 10.2742L16.4886 7.63932L20 5.35898L23.7305 3.45818L27.6393 1.95774L31.6835 0.874096L35.8189 0.219124L40 0Z" fill="#EDF2FF"/>
<path d="M39.6689 20C28.8235 20 20 28.7673 20 39.5433C20 39.6049 20.0045 39.6665 20.0144 39.8156C20.018 40.1585 20.2983 40.4343 20.6434 40.4343H39.6734C40.0211 40.4343 40.3024 40.1549 40.3024 39.8094V20.625C40.3024 20.2794 40.0157 20 39.6689 20ZM39.0434 39.1844H21.2617C21.4504 29.4717 29.298 21.5874 39.0434 21.2606V39.1844ZM41.9945 40.3031H58.1183C58.4661 40.3031 58.7473 40.0183 58.7473 39.6728C58.7473 30.6198 51.3329 23.2551 42.2182 23.2551C42.1616 23.2551 42.1077 23.2587 41.9828 23.2676C41.6395 23.273 41.3645 23.5515 41.3645 23.8926V39.6781C41.3645 40.0228 41.6467 40.3031 41.9945 40.3031ZM42.6235 24.5104C50.6499 24.7184 57.1532 31.1091 57.4767 39.0523H42.6235V24.5104ZM59.9856 41.9628C59.9748 41.6253 59.6972 41.3575 59.3575 41.3575H42.1086C41.9415 41.3575 41.7824 41.4236 41.6638 41.5405C41.5461 41.6584 41.4796 41.8173 41.4796 41.9825L41.4814 59.375C41.4814 59.7206 41.7626 60 42.1104 60C51.9754 60 60 52.0246 60 42.2235C60 42.1637 59.9955 42.103 59.9856 41.9628ZM42.7376 58.7394V42.6074H58.7374C58.5371 51.3372 51.491 58.4144 42.7376 58.7394ZM39.6734 41.3575H23.9305C23.5864 41.3575 23.3015 41.6968 23.297 42.0396C23.2925 42.0941 23.2889 42.1467 23.2889 42.203C23.2889 51.1792 30.6369 58.4805 39.6689 58.4805H39.6734C40.0211 58.4805 40.3024 58.201 40.3024 57.8555V41.9825C40.3024 41.6369 40.0202 41.3575 39.6734 41.3575ZM39.0434 57.218C31.1491 56.8975 24.7959 50.531 24.5578 42.6083H39.0434V57.218ZM29.5037 33.9009C29.156 33.9009 28.8747 34.1803 28.8747 34.5258C28.8747 34.8713 29.156 35.1508 29.5037 35.1508H30.4698V36.8828C30.4698 37.2283 30.751 37.5078 31.0988 37.5078C31.4465 37.5078 31.7278 37.2283 31.7278 36.8828V35.1508H35.564C35.9118 35.1508 36.193 34.8713 36.193 34.5258C36.193 34.1803 35.9118 33.9009 35.564 33.9009H31.7278V33.2554H33.9797C35.5451 33.2554 36.8185 31.9903 36.8185 30.3779C36.8185 28.8226 35.5451 27.5575 33.9797 27.5575H31.0988C30.751 27.5575 30.4698 27.837 30.4698 28.1825V32.0046H29.5037C29.156 32.0046 28.8747 32.284 28.8747 32.6295C28.8747 32.975 29.156 33.2545 29.5037 33.2545H30.4698V33.9H29.5037V33.9009ZM31.7287 28.8083H33.9806C34.8523 28.8083 35.5613 29.5128 35.5613 30.4359C35.5613 31.3019 34.8523 32.0054 33.9806 32.0054H31.7287V28.8083Z" fill="#111111"/>
</svg>
