<svg width="80" height="80" viewBox="0 0 80 80" fill="none" xmlns="http://www.w3.org/2000/svg">
<path d="M40 0L44.1811 0.219124L48.3165 0.874096L52.3607 1.95774L56.2695 3.45818L60 5.35898L63.5114 7.63932L66.7652 10.2742L69.7258 13.2348L72.3607 16.4886L74.641 20L76.5418 23.7305L78.0423 27.6393L79.1259 31.6835L79.7809 35.8189L80 40L79.7809 44.1811L79.1259 48.3165L78.0423 52.3607L76.5418 56.2695L74.641 60L72.3607 63.5114L69.7258 66.7652L66.7652 69.7258L63.5114 72.3607L60 74.641L56.2695 76.5418L52.3607 78.0423L48.3165 79.1259L44.1811 79.7809L40 80L35.8189 79.7809L31.6835 79.1259L27.6393 78.0423L23.7305 76.5418L20 74.641L16.4886 72.3607L13.2348 69.7258L10.2742 66.7652L7.63932 63.5114L5.35898 60L3.45818 56.2695L1.95774 52.3607L0.874096 48.3165L0.219124 44.1811L0 40L0.219124 35.8189L0.874096 31.6835L1.95774 27.6393L3.45818 23.7305L5.35898 20L7.63932 16.4886L10.2742 13.2348L13.2348 10.2742L16.4886 7.63932L20 5.35898L23.7305 3.45818L27.6393 1.95774L31.6835 0.874096L35.8189 0.219124L40 0Z" fill="#EDF2FF"/>
<path d="M28.31 24.8194C28.5825 24.6158 28.6349 24.2331 28.4263 23.966C28.2194 23.6989 27.8297 23.6467 27.5563 23.852C22.7546 27.4466 20 32.8992 20 38.8139C20 39.1505 20.2779 39.4228 20.6214 39.4228C20.965 39.4228 21.2428 39.1505 21.2428 38.8139C21.2428 33.282 23.819 28.1816 28.31 24.8194ZM38.5446 57.6155C38.8775 57.6155 39.1536 57.3554 39.1651 57.0257C39.1766 56.6908 38.9077 56.409 38.565 56.3968C35.4668 56.2933 32.4344 55.3981 29.7943 53.8053C29.5031 53.6287 29.1196 53.7165 28.9394 54.0045C28.7592 54.2916 28.8506 54.6674 29.1427 54.8422C31.9656 56.5464 35.2085 57.5051 38.5215 57.6138C38.5304 57.6155 38.5375 57.6155 38.5446 57.6155ZM39.1971 21.2179C49.097 21.2179 57.1522 29.1116 57.1522 38.8139C57.1522 39.4941 57.1131 40.1735 57.0368 40.833C56.9977 41.167 57.2418 41.468 57.5836 41.5063C57.6067 41.5089 57.6315 41.5106 57.6546 41.5106C57.9662 41.5106 58.2343 41.281 58.2707 40.9704C58.3533 40.2649 58.395 39.5394 58.395 38.8139C58.395 28.44 49.7832 20 39.1971 20C38.8535 20 38.5756 20.2723 38.5756 20.6089C38.5756 20.9456 38.8535 21.2179 39.1971 21.2179ZM41.704 54.7439C42.044 54.6926 42.2766 54.382 42.2251 54.0488C42.1718 53.7157 41.8496 53.4947 41.5167 53.5391C40.7541 53.653 39.9729 53.7104 39.1971 53.7104C30.8152 53.7104 23.9956 47.0277 23.9956 38.813C23.9956 30.5974 30.8152 23.9147 39.1971 23.9147C47.5798 23.9147 54.4002 30.5983 54.4002 38.813C54.4002 39.1157 54.3931 39.4167 54.3736 39.7142C54.3514 40.05 54.6106 40.3397 54.9524 40.3623C55.2933 40.3841 55.5907 40.1301 55.6129 39.7943C55.6342 39.4707 55.643 39.1427 55.643 38.8139C55.643 29.9267 48.2652 22.6968 39.1971 22.6968C30.1298 22.6968 22.7528 29.9267 22.7528 38.8139C22.7528 47.7001 30.1298 54.9292 39.1971 54.9292C40.036 54.9292 40.8802 54.8666 41.704 54.7439ZM52.2368 39.9978C52.5724 40.0144 52.8698 39.7499 52.8831 39.4141C52.892 39.2149 52.8955 39.0157 52.8955 38.8147C52.8955 31.4125 46.7507 25.3901 39.1971 25.3901C31.6443 25.3901 25.4986 31.4125 25.4986 38.8147C25.4986 46.216 31.6434 52.2377 39.1971 52.2377C41.324 52.2377 43.364 51.7723 45.2602 50.8545C45.5683 50.7049 45.6943 50.3412 45.5425 50.0385C45.3907 49.7375 45.0179 49.6122 44.7098 49.7619C42.9859 50.5961 41.1305 51.0189 39.1962 51.0189C32.3287 51.0189 26.7414 45.5445 26.7414 38.8147C26.7414 32.0841 32.3287 26.6079 39.1962 26.6079C46.0636 26.6079 51.6509 32.0833 51.6509 38.8147C51.6509 39 51.6474 39.1827 51.6403 39.3663C51.6279 39.7012 51.8951 39.9848 52.2368 39.9978ZM58.0053 43.1296C56.7172 41.8673 55.003 41.1714 53.1796 41.1714C51.3571 41.1714 49.6438 41.8673 48.3539 43.1296C46.3317 45.1139 45.815 48.1621 47.0259 50.6866L38.5827 58.9596C38.4034 59.1344 38.351 59.3998 38.4505 59.6277C38.5481 59.8539 38.7736 60 39.0231 60H39.0328L43.8949 59.9234C44.2313 59.9165 44.503 59.6503 44.5056 59.3206L44.5243 57.6912L46.4187 57.499C46.7321 57.4668 46.9717 57.2102 46.9762 56.9005L46.9984 55.2798L48.7925 55.1554C48.9416 55.145 49.0819 55.0823 49.1875 54.9788L50.2963 53.8914C51.2071 54.309 52.2075 54.5282 53.2169 54.5282C55.0261 54.5282 56.727 53.8401 58.0053 52.5882C60.6649 49.9802 60.6649 45.7376 58.0053 43.1296ZM57.1255 51.727C56.0825 52.7483 54.695 53.312 53.2169 53.312C52.2608 53.312 51.3136 53.0711 50.4783 52.6152C50.2368 52.4847 49.9341 52.5239 49.737 52.717L48.472 53.9558L46.3406 54.1054C46.0192 54.1271 45.7671 54.3872 45.7636 54.7039L45.7414 56.3437L43.8452 56.536C43.5309 56.5681 43.2912 56.8248 43.2877 57.1345L43.2699 58.7143L40.5482 58.7586L48.2252 51.2373C48.4214 51.0433 48.464 50.7475 48.3282 50.51C47.1173 48.383 47.4902 45.7037 49.2337 43.9925C50.2883 42.959 51.69 42.391 53.1796 42.391C54.671 42.391 56.0727 42.959 57.1255 43.9925C59.3005 46.1247 59.3005 49.5948 57.1255 51.727ZM53.5631 45.3922C52.9745 45.9681 52.9745 46.9059 53.5631 47.4835C53.8481 47.7619 54.2271 47.9167 54.6301 47.9167C55.0341 47.9167 55.4131 47.7619 55.6972 47.4835C55.983 47.2052 56.1411 46.8328 56.1411 46.437C56.1411 46.0429 55.983 45.6706 55.6981 45.3922C55.1282 44.8346 54.1339 44.8329 53.5631 45.3922ZM54.8192 46.6232C54.6852 46.7554 54.5787 46.7589 54.442 46.6232C54.3381 46.5214 54.3381 46.3561 54.442 46.2543C54.5094 46.1865 54.5893 46.1778 54.6301 46.1778C54.6719 46.1778 54.7518 46.1865 54.8201 46.2543C54.8876 46.3204 54.8982 46.3987 54.8982 46.4379C54.8982 46.4788 54.8876 46.5544 54.8192 46.6232ZM40.8562 39.4245C43.2921 39.4245 45.2753 37.482 45.2753 35.0941V34.9966C45.2753 32.6087 43.293 30.6661 40.8562 30.6661H36.1335C36.1149 30.6661 36.0989 30.6748 36.0802 30.6766C36.0616 30.6748 36.0456 30.6661 36.027 30.6661C35.6834 30.6661 35.4056 30.9384 35.4056 31.2751V38.2058H33.7429C33.3993 38.2058 33.1215 38.4781 33.1215 38.8147C33.1215 39.1514 33.3993 39.4237 33.7429 39.4237H35.4056V41.0061H33.7429C33.3993 41.0061 33.1215 41.2784 33.1215 41.615C33.1215 41.9517 33.3993 42.224 33.7429 42.224H35.4056V47.0242C35.4056 47.3609 35.6834 47.634 36.027 47.634C36.3705 47.634 36.6484 47.3609 36.6484 47.0242V42.224H43.5771C43.9206 42.224 44.1985 41.9517 44.1985 41.615C44.1985 41.2784 43.9206 41.0061 43.5771 41.0061H36.6484V39.4237H40.8562V39.4245ZM36.6493 31.884H40.8562C42.6077 31.884 44.0316 33.2803 44.0316 34.9966V35.0941C44.0316 36.8104 42.6077 38.2067 40.8562 38.2067H36.6493V31.884Z" fill="#111111"/>
</svg>
