<svg width="80" height="80" viewBox="0 0 80 80" fill="none" xmlns="http://www.w3.org/2000/svg">
<path d="M40 0L44.1811 0.219124L48.3165 0.874096L52.3607 1.95774L56.2695 3.45818L60 5.35898L63.5114 7.63932L66.7652 10.2742L69.7258 13.2348L72.3607 16.4886L74.641 20L76.5418 23.7305L78.0423 27.6393L79.1259 31.6835L79.7809 35.8189L80 40L79.7809 44.1811L79.1259 48.3165L78.0423 52.3607L76.5418 56.2695L74.641 60L72.3607 63.5114L69.7258 66.7652L66.7652 69.7258L63.5114 72.3607L60 74.641L56.2695 76.5418L52.3607 78.0423L48.3165 79.1259L44.1811 79.7809L40 80L35.8189 79.7809L31.6835 79.1259L27.6393 78.0423L23.7305 76.5418L20 74.641L16.4886 72.3607L13.2348 69.7258L10.2742 66.7652L7.63932 63.5114L5.35898 60L3.45818 56.2695L1.95774 52.3607L0.874096 48.3165L0.219124 44.1811L0 40L0.219124 35.8189L0.874096 31.6835L1.95774 27.6393L3.45818 23.7305L5.35898 20L7.63932 16.4886L10.2742 13.2348L13.2348 10.2742L16.4886 7.63932L20 5.35898L23.7305 3.45818L27.6393 1.95774L31.6835 0.874096L35.8189 0.219124L40 0Z" fill="#EDF2FF"/>
<path d="M31.1212 39.063H48.8786C49.3958 39.063 49.8152 39.4825 49.8152 39.9996C49.8152 40.5169 49.3959 40.9363 48.8786 40.9363H31.1212C30.6039 40.9363 30.1846 40.5169 30.1846 39.9996C30.1846 39.4825 30.6039 39.063 31.1212 39.063Z" fill="#111111"/>
<path d="M40.4488 33.4432H31.1212C30.6039 33.4432 30.1846 33.8626 30.1846 34.3797C30.1846 34.897 30.6039 35.3165 31.1212 35.3165H40.4488C40.9662 35.3165 41.3855 34.897 41.3855 34.3797C41.3855 33.8626 40.9661 33.4432 40.4488 33.4432Z" fill="#111111"/>
<path d="M31.1212 44.6829H48.8786C49.3958 44.6829 49.8152 45.1024 49.8152 45.6194C49.8152 46.1368 49.3959 46.5562 48.8786 46.5562H31.1212C30.6039 46.5562 30.1846 46.1368 30.1846 45.6194C30.1846 45.1024 30.6039 44.6829 31.1212 44.6829Z" fill="#111111"/>
<path fill-rule="evenodd" clip-rule="evenodd" d="M52.1667 21.3394C52.7143 20.846 53.5031 20.7261 54.1726 21.0345C54.8458 21.334 55.2762 22.0057 55.267 22.7425V57.2574C55.2701 57.7173 55.1028 58.1627 54.7969 58.5064C54.1144 59.274 52.9387 59.3431 52.1711 58.6605L49.5691 56.3587L46.0314 59.5223C45.3207 60.1588 44.2449 60.1588 43.5341 59.5223L39.9997 56.3616L36.4659 59.5228C35.7553 60.1592 34.6796 60.1592 33.9691 59.5228L30.4323 56.3589L27.8327 58.6607C27.4889 58.9664 27.0441 59.1341 26.5841 59.1314C25.5554 59.1253 24.7264 58.2864 24.7325 57.2576V22.7425C24.7293 22.2825 24.8967 21.8377 25.2022 21.494C25.8846 20.7261 27.0603 20.657 27.8281 21.3394L30.4301 23.6412L33.9677 20.4774C34.6785 19.8409 35.7543 19.8409 36.465 20.4774L39.9997 23.6382L43.5336 20.4774C44.2441 19.8409 45.3198 19.8409 46.0304 20.4774L49.5671 23.6412L52.1667 21.3394ZM48.3188 54.9622C49.026 54.3289 50.0957 54.326 50.8063 54.9556L53.403 57.2569L53.3937 22.7425L50.8011 25.0443C50.0931 25.6736 49.0254 25.6707 48.3208 25.0374L44.7827 21.8738L41.2484 25.0345C40.5377 25.6712 39.4619 25.6712 38.7513 25.0345L35.2173 21.8738L31.6806 25.0374C30.9734 25.671 29.9037 25.6736 29.1931 25.0443L26.5964 22.743L26.6057 57.2567L29.1983 54.9554C29.9063 54.326 30.9741 54.3289 31.6786 54.9622L35.2168 58.1258L38.7511 54.9651C39.4617 54.3287 40.5375 54.3287 41.2482 54.9651L44.7821 58.1258L48.3188 54.9622Z" fill="#111111"/>
</svg>
