<svg width="80" height="80" viewBox="0 0 80 80" fill="none" xmlns="http://www.w3.org/2000/svg">
<path d="M40 0L44.1811 0.219124L48.3165 0.874096L52.3607 1.95774L56.2695 3.45818L60 5.35898L63.5114 7.63932L66.7652 10.2742L69.7258 13.2348L72.3607 16.4886L74.641 20L76.5418 23.7305L78.0423 27.6393L79.1259 31.6835L79.7809 35.8189L80 40L79.7809 44.1811L79.1259 48.3165L78.0423 52.3607L76.5418 56.2695L74.641 60L72.3607 63.5114L69.7258 66.7652L66.7652 69.7258L63.5114 72.3607L60 74.641L56.2695 76.5418L52.3607 78.0423L48.3165 79.1259L44.1811 79.7809L40 80L35.8189 79.7809L31.6835 79.1259L27.6393 78.0423L23.7305 76.5418L20 74.641L16.4886 72.3607L13.2348 69.7258L10.2742 66.7652L7.63932 63.5114L5.35898 60L3.45818 56.2695L1.95774 52.3607L0.874096 48.3165L0.219124 44.1811L0 40L0.219124 35.8189L0.874096 31.6835L1.95774 27.6393L3.45818 23.7305L5.35898 20L7.63932 16.4886L10.2742 13.2348L13.2348 10.2742L16.4886 7.63932L20 5.35898L23.7305 3.45818L27.6393 1.95774L31.6835 0.874096L35.8189 0.219124L40 0Z" fill="#EDF2FF"/>
<path d="M53.96 42.6132C53.5827 42.6132 53.2776 42.9222 53.2776 43.3044V51.1049C53.2776 51.9393 52.6079 52.6166 51.7852 52.6166H22.8581C22.0354 52.6166 21.3657 51.9383 21.3657 51.1049V36.0824H44.4304C44.8076 36.0824 45.1127 35.7734 45.1127 35.3913C45.1127 35.0091 44.8076 34.7001 44.4304 34.7001H21.3647V32.0301C21.3647 31.1977 22.0344 30.5204 22.8571 30.5204H45.4091C45.7863 30.5204 46.0914 30.2113 46.0914 29.8292C46.0914 29.4471 45.7863 29.138 45.4091 29.138H22.8581C21.2819 29.138 20 30.4354 20 32.0301V51.1049C20 52.7006 21.2819 54 22.8581 54H51.7852C53.3605 54 54.6433 52.7016 54.6433 51.1049V43.3044C54.6424 42.9232 54.3372 42.6132 53.96 42.6132ZM64.054 36.3066C63.7889 36.036 63.3561 36.036 63.089 36.3066C62.8228 36.5762 62.8228 37.0136 63.089 37.2841L65.3057 39.5325H53.845C50.5375 39.5325 47.848 36.8072 47.848 33.4569C47.848 30.1076 50.5385 27.3834 53.845 27.3834C57.1515 27.3834 59.8409 30.1076 59.8409 33.4569C59.8409 34.6566 59.4968 35.8158 58.8447 36.8112C58.6088 37.1745 58.3261 37.5201 58.0025 37.8371C57.7315 38.1027 57.7247 38.5401 57.9859 38.8146C58.2481 39.0891 58.68 39.096 58.95 38.8304C59.3457 38.4424 59.6947 38.0178 59.9833 37.5725C60.7836 36.353 61.2066 34.9301 61.2066 33.4569C61.2057 29.3453 57.904 26 53.845 26C49.7859 26 46.4823 29.3453 46.4823 33.4569C46.4823 37.293 49.357 40.4596 53.0388 40.8674V40.9148H65.4675L63.2498 43.1602C62.9837 43.4298 62.9837 43.8682 63.2498 44.1377C63.3834 44.273 63.5578 44.3402 63.7323 44.3402C63.9068 44.3402 64.0813 44.273 64.2149 44.1377L68 40.3046L64.054 36.3066ZM53.845 28.8813C53.4677 28.8813 53.1626 29.1903 53.1626 29.5725V33.7423L56.0802 36.6976C56.2137 36.8329 56.3882 36.9 56.5627 36.9C56.7372 36.9 56.9117 36.8329 57.0452 36.6976C57.3113 36.428 57.3113 35.9896 57.0452 35.7201L54.5273 33.1706V29.5734C54.5273 29.1913 54.2212 28.8813 53.845 28.8813ZM44.3495 48.5663C44.3495 48.9484 44.6546 49.2575 45.0318 49.2575H49.5334C49.9107 49.2575 50.2158 48.9484 50.2158 48.5663C50.2158 48.1842 49.9107 47.8751 49.5334 47.8751H45.0318C44.6546 47.8751 44.3495 48.1851 44.3495 48.5663Z" fill="black"/>
</svg>
