<svg width="80" height="80" viewBox="0 0 80 80" fill="none" xmlns="http://www.w3.org/2000/svg">
<path d="M40 0L44.1811 0.219124L48.3165 0.874096L52.3607 1.95774L56.2695 3.45818L60 5.35898L63.5114 7.63932L66.7652 10.2742L69.7258 13.2348L72.3607 16.4886L74.641 20L76.5418 23.7305L78.0423 27.6393L79.1259 31.6835L79.7809 35.8189L80 40L79.7809 44.1811L79.1259 48.3165L78.0423 52.3607L76.5418 56.2695L74.641 60L72.3607 63.5114L69.7258 66.7652L66.7652 69.7258L63.5114 72.3607L60 74.641L56.2695 76.5418L52.3607 78.0423L48.3165 79.1259L44.1811 79.7809L40 80L35.8189 79.7809L31.6835 79.1259L27.6393 78.0423L23.7305 76.5418L20 74.641L16.4886 72.3607L13.2348 69.7258L10.2742 66.7652L7.63932 63.5114L5.35898 60L3.45818 56.2695L1.95774 52.3607L0.874096 48.3165L0.219124 44.1811L0 40L0.219124 35.8189L0.874096 31.6835L1.95774 27.6393L3.45818 23.7305L5.35898 20L7.63932 16.4886L10.2742 13.2348L13.2348 10.2742L16.4886 7.63932L20 5.35898L23.7305 3.45818L27.6393 1.95774L31.6835 0.874096L35.8189 0.219124L40 0Z" fill="#EDF2FF"/>
<path d="M48.1854 30.752H18.6934C18.3101 30.752 18 31.0686 18 31.46C18 31.8514 18.3101 32.168 18.6934 32.168H48.1844C48.5678 32.168 48.8778 31.8514 48.8778 31.46C48.8778 31.0686 48.5678 30.752 48.1854 30.752ZM54.6698 32.4836L61.7972 25.2084C62.0676 24.9323 62.0676 24.4832 61.7972 24.2071C61.5267 23.931 61.0869 23.931 60.8165 24.2071L54.6698 30.482L52.2181 27.9777C51.9477 27.7016 51.5079 27.7016 51.2374 27.9777C50.967 28.2538 50.967 28.7029 51.2374 28.979L54.6698 32.4836ZM48.1854 40.6619H18.6934C18.3101 40.6619 18 40.9785 18 41.3699C18 41.7614 18.3101 42.0779 18.6934 42.0779H48.1844C48.5678 42.0779 48.8778 41.7614 48.8778 41.3699C48.8778 40.9785 48.5678 40.6619 48.1854 40.6619ZM60.8165 34.118L54.6698 40.3919L52.2181 37.8896C51.9477 37.6135 51.5079 37.6135 51.2374 37.8896C50.967 38.1657 50.967 38.6148 51.2374 38.8909L54.6698 42.3945L61.7972 35.1193C62.0676 34.8432 62.0676 34.3941 61.7972 34.118C61.5267 33.8419 61.0869 33.8409 60.8165 34.118ZM48.1854 50.2674H18.6934C18.3101 50.2674 18 50.584 18 50.9754C18 51.3668 18.3101 51.6834 18.6934 51.6834H48.1844C48.5678 51.6834 48.8778 51.3668 48.8778 50.9754C48.8778 50.584 48.5678 50.2674 48.1854 50.2674ZM60.8165 43.7225L54.6698 49.9974L52.2181 47.4931C51.9477 47.217 51.5079 47.217 51.2374 47.4931C50.967 47.7692 50.967 48.2183 51.2374 48.4944L54.6698 52L61.7972 44.7238C62.0676 44.4477 62.0676 43.9986 61.7972 43.7225C61.5267 43.4464 61.0869 43.4454 60.8165 43.7225Z" fill="black"/>
</svg>
