<svg width="80" height="80" viewBox="0 0 80 80" fill="none" xmlns="http://www.w3.org/2000/svg">
<path d="M40 0L44.1811 0.219124L48.3165 0.874096L52.3607 1.95774L56.2695 3.45818L60 5.35898L63.5114 7.63932L66.7652 10.2742L69.7258 13.2348L72.3607 16.4886L74.641 20L76.5418 23.7305L78.0423 27.6393L79.1259 31.6835L79.7809 35.8189L80 40L79.7809 44.1811L79.1259 48.3165L78.0423 52.3607L76.5418 56.2695L74.641 60L72.3607 63.5114L69.7258 66.7652L66.7652 69.7258L63.5114 72.3607L60 74.641L56.2695 76.5418L52.3607 78.0423L48.3165 79.1259L44.1811 79.7809L40 80L35.8189 79.7809L31.6835 79.1259L27.6393 78.0423L23.7305 76.5418L20 74.641L16.4886 72.3607L13.2348 69.7258L10.2742 66.7652L7.63932 63.5114L5.35898 60L3.45818 56.2695L1.95774 52.3607L0.874096 48.3165L0.219124 44.1811L0 40L0.219124 35.8189L0.874096 31.6835L1.95774 27.6393L3.45818 23.7305L5.35898 20L7.63932 16.4886L10.2742 13.2348L13.2348 10.2742L16.4886 7.63932L20 5.35898L23.7305 3.45818L27.6393 1.95774L31.6835 0.874096L35.8189 0.219124L40 0Z" fill="#EDF2FF"/>
<mask id="path-2-inside-1" fill="white">
<path fill-rule="evenodd" clip-rule="evenodd" d="M51.2657 30.8232C51.2657 36.8007 46.2215 41.6464 39.9993 41.6464C33.7802 41.6391 28.7405 36.7977 28.7329 30.8232C28.7329 24.8457 33.777 20 39.9993 20C46.2216 20 51.2657 24.8456 51.2657 30.8232ZM46.0658 30.8232C46.0658 27.6045 43.3497 24.9953 39.9993 24.9953C36.6488 24.9953 33.9327 27.6045 33.9327 30.8232C33.9327 34.042 36.6488 36.6512 39.9993 36.6512C43.3498 36.6512 46.0658 34.042 46.0658 30.8232ZM52.9997 43.2782C52.998 44.6867 52.2602 46.0002 51.0358 46.775C49.4676 47.7767 47.7594 48.5599 45.9626 49.1011C45.6553 49.191 45.3392 49.2759 45.0145 49.3558L50.2439 54.2713C50.2728 54.2979 50.3011 54.3251 50.329 54.3527C51.661 55.6738 51.6261 57.7821 50.251 59.0618C48.8759 60.3414 46.6812 60.3079 45.3491 58.9868L40.0001 53.6685L34.6616 58.9769C34.6339 59.0045 34.6058 59.0316 34.5772 59.0583C33.2031 60.339 31.0085 60.3071 29.6753 58.9871C28.3421 57.667 28.3753 55.5587 29.7494 54.278L34.9874 49.3576C34.6626 49.2798 34.3478 49.1955 34.0427 49.1044C32.2439 48.5611 30.5341 47.7763 28.9641 46.7733C27.7403 45.9979 27.0028 44.6847 27.0002 43.2765C26.9851 42.1081 27.672 41.0359 28.7647 40.5225C29.8887 39.9875 31.2308 40.1087 32.2313 40.8355C36.8611 44.078 43.1405 44.078 47.7703 40.8355C48.7693 40.1049 50.1138 39.9835 51.2369 40.5225C52.3301 41.036 53.0167 42.1093 52.9997 43.2782Z"/>
</mask>
<path d="M39.9993 41.6464L39.9975 43.1464H39.9993V41.6464ZM28.7329 30.8232H27.2329L27.2329 30.8252L28.7329 30.8232ZM51.0358 46.775L50.2338 45.5074L50.2284 45.5109L51.0358 46.775ZM52.9997 43.2782L51.4998 43.2564L51.4997 43.2664L51.4997 43.2764L52.9997 43.2782ZM45.9626 49.1011L46.3838 50.5408L46.3952 50.5373L45.9626 49.1011ZM45.0145 49.3558L44.656 47.8993L41.9766 48.5589L43.9872 50.4488L45.0145 49.3558ZM50.2439 54.2713L49.2165 55.3642L49.225 55.3721L50.2439 54.2713ZM50.329 54.3527L51.3852 53.2877L51.3851 53.2876L50.329 54.3527ZM50.251 59.0618L49.2291 57.9637H49.2291L50.251 59.0618ZM45.3491 58.9868L44.2915 60.0505L44.2929 60.0519L45.3491 58.9868ZM40.0001 53.6685L41.0577 52.6048L40.0001 51.5532L38.9425 52.6048L40.0001 53.6685ZM34.6616 58.9769L33.6039 57.9132L33.6008 57.9163L34.6616 58.9769ZM34.5772 59.0583L35.5999 60.1556L35.6007 60.1549L34.5772 59.0583ZM29.6753 58.9871L28.6199 60.053L28.6199 60.053L29.6753 58.9871ZM29.7494 54.278L30.7721 55.3752L30.7764 55.3713L29.7494 54.278ZM34.9874 49.3576L36.0144 50.4508L38.0418 48.5464L35.3366 47.8988L34.9874 49.3576ZM34.0427 49.1044L33.609 50.5404L33.6139 50.5419L34.0427 49.1044ZM28.9641 46.7733L29.7717 45.5092L29.7669 45.5062L28.9641 46.7733ZM27.0002 43.2765L28.5002 43.2738L28.5002 43.2654L28.5001 43.257L27.0002 43.2765ZM28.7647 40.5225L29.4026 41.8801L29.4094 41.8769L28.7647 40.5225ZM32.2313 40.8355L31.3497 42.0491L31.3602 42.0567L31.3708 42.0642L32.2313 40.8355ZM47.7703 40.8355L48.6308 42.0642L48.6434 42.0553L48.6558 42.0462L47.7703 40.8355ZM51.2369 40.5225L50.588 41.8749L50.5992 41.8801L51.2369 40.5225ZM39.9993 43.1464C46.9926 43.1464 52.7657 37.6853 52.7657 30.8232H49.7657C49.7657 35.9161 45.4504 40.1464 39.9993 40.1464V43.1464ZM27.2329 30.8252C27.2417 37.6825 33.0086 43.1382 39.9975 43.1464L40.0011 40.1464C34.5519 40.14 30.2394 35.9128 30.2329 30.8213L27.2329 30.8252ZM39.9993 18.5C33.0058 18.5 27.2329 23.9611 27.2329 30.8232H30.2329C30.2329 25.7303 34.5481 21.5 39.9993 21.5V18.5ZM52.7657 30.8232C52.7657 23.961 46.9927 18.5 39.9993 18.5V21.5C45.4505 21.5 49.7657 25.7302 49.7657 30.8232H52.7657ZM39.9993 26.4953C42.5786 26.4953 44.5658 28.4891 44.5658 30.8232H47.5658C47.5658 26.7199 44.1208 23.4953 39.9993 23.4953V26.4953ZM35.4327 30.8232C35.4327 28.4891 37.42 26.4953 39.9993 26.4953V23.4953C35.8777 23.4953 32.4327 26.7199 32.4327 30.8232H35.4327ZM39.9993 35.1512C37.4199 35.1512 35.4327 33.1574 35.4327 30.8232H32.4327C32.4327 34.9266 35.8776 38.1512 39.9993 38.1512V35.1512ZM44.5658 30.8232C44.5658 33.1574 42.5787 35.1512 39.9993 35.1512V38.1512C44.1209 38.1512 47.5658 34.9266 47.5658 30.8232H44.5658ZM51.8379 48.0425C53.4811 47.0028 54.4973 45.2198 54.4997 43.2801L51.4997 43.2764C51.4986 44.1536 51.0394 44.9977 50.2338 45.5074L51.8379 48.0425ZM46.3952 50.5373C48.3232 49.9566 50.1576 49.1158 51.8433 48.0391L50.2284 45.5109C48.7776 46.4376 47.1957 47.1631 45.53 47.6648L46.3952 50.5373ZM45.3731 50.8124C45.7178 50.7275 46.0548 50.637 46.3838 50.5407L45.5415 47.6614C45.2558 47.745 44.9606 47.8243 44.656 47.8993L45.3731 50.8124ZM51.2712 53.1783L46.0419 48.2629L43.9872 50.4488L49.2166 55.3642L51.2712 53.1783ZM51.3851 53.2876C51.345 53.2478 51.3042 53.2087 51.2628 53.1704L49.225 55.3721C49.2413 55.3872 49.2572 55.4024 49.2728 55.4179L51.3851 53.2876ZM51.2728 60.1599C53.2703 58.3011 53.3236 55.21 51.3852 53.2877L49.2727 55.4178C49.9985 56.1375 49.9819 57.2631 49.2291 57.9637L51.2728 60.1599ZM44.2929 60.0519C46.1977 61.941 49.3096 61.9868 51.2728 60.1599L49.2291 57.9637C48.4421 58.6961 47.1646 58.6748 46.4054 57.9218L44.2929 60.0519ZM38.9425 54.7322L44.2915 60.0505L46.4067 57.9231L41.0577 52.6048L38.9425 54.7322ZM35.7192 60.0405L41.0578 54.7321L38.9425 52.6048L33.6039 57.9132L35.7192 60.0405ZM35.6007 60.1549C35.6408 60.1174 35.6815 60.0783 35.7223 60.0374L33.6008 57.9163C33.5864 57.9307 33.5708 57.9458 33.5538 57.9617L35.6007 60.1549ZM28.6199 60.053C30.5263 61.9405 33.638 61.9841 35.5999 60.1556L33.5545 57.961C32.7681 58.6939 31.4907 58.6737 30.7306 57.9212L28.6199 60.053ZM28.7266 53.1807C26.7307 55.0411 26.6799 58.1321 28.6199 60.053L30.7307 57.9212C30.0042 57.2019 30.0199 56.0763 30.7721 55.3752L28.7266 53.1807ZM33.9604 48.2643L28.7224 53.1847L30.7764 55.3713L36.0144 50.4508L33.9604 48.2643ZM33.6139 50.5419C33.9465 50.6411 34.2879 50.7325 34.6381 50.8163L35.3366 47.8988C35.0373 47.8271 34.749 47.7498 34.4715 47.667L33.6139 50.5419ZM28.1565 48.0373C29.8437 49.1152 31.6794 49.9576 33.609 50.5404L34.4764 47.6685C32.8084 47.1647 31.2246 46.4374 29.7717 45.5092L28.1565 48.0373ZM25.5002 43.2793C25.5038 45.2181 26.5194 47 28.1613 48.0403L29.7669 45.5062C28.9613 44.9958 28.5019 44.1514 28.5002 43.2738L25.5002 43.2793ZM28.1268 39.1649C26.5244 39.9178 25.4772 41.5144 25.5004 43.296L28.5001 43.257C28.4929 42.7018 28.8196 42.154 29.4026 41.8801L28.1268 39.1649ZM33.1129 39.622C31.6642 38.5695 29.7361 38.3989 28.1201 39.168L29.4094 41.8769C30.0413 41.5761 30.7975 41.6479 31.3497 42.0491L33.1129 39.622ZM46.9098 39.6069C42.7967 42.4876 37.205 42.4876 33.0918 39.6069L31.3708 42.0642C36.5172 45.6685 43.4844 45.6685 48.6308 42.0642L46.9098 39.6069ZM51.8858 39.1701C50.2684 38.394 48.3338 38.565 46.8848 39.6248L48.6558 42.0462C49.2048 41.6448 49.9591 41.5731 50.588 41.8748L51.8858 39.1701ZM54.4995 43.3001C54.5256 41.517 53.4784 39.9181 51.8747 39.1648L50.5992 41.8801C51.1819 42.1538 51.5079 42.7016 51.4998 43.2564L54.4995 43.3001Z" fill="#111111" mask="url(#path-2-inside-1)"/>
</svg>
