<svg width="80" height="80" viewBox="0 0 80 80" fill="none" xmlns="http://www.w3.org/2000/svg">
<path d="M40 0L44.1811 0.219124L48.3165 0.874096L52.3607 1.95774L56.2695 3.45818L60 5.35898L63.5114 7.63932L66.7652 10.2742L69.7258 13.2348L72.3607 16.4886L74.641 20L76.5418 23.7305L78.0423 27.6393L79.1259 31.6835L79.7809 35.8189L80 40L79.7809 44.1811L79.1259 48.3165L78.0423 52.3607L76.5418 56.2695L74.641 60L72.3607 63.5114L69.7258 66.7652L66.7652 69.7258L63.5114 72.3607L60 74.641L56.2695 76.5418L52.3607 78.0423L48.3165 79.1259L44.1811 79.7809L40 80L35.8189 79.7809L31.6835 79.1259L27.6393 78.0423L23.7305 76.5418L20 74.641L16.4886 72.3607L13.2348 69.7258L10.2742 66.7652L7.63932 63.5114L5.35898 60L3.45818 56.2695L1.95774 52.3607L0.874096 48.3165L0.219124 44.1811L0 40L0.219124 35.8189L0.874096 31.6835L1.95774 27.6393L3.45818 23.7305L5.35898 20L7.63932 16.4886L10.2742 13.2348L13.2348 10.2742L16.4886 7.63932L20 5.35898L23.7305 3.45818L27.6393 1.95774L31.6835 0.874096L35.8189 0.219124L40 0Z" fill="#EDF2FF"/>
<path d="M32.5455 49.3987C32.6684 49.3987 32.7906 49.3613 32.8958 49.2864C32.9135 49.2745 34.6354 48.07 36.3016 48.07C37.5403 48.07 38.803 48.743 39.3666 49.0864C39.4241 49.185 39.5064 49.269 39.6091 49.3247C39.7002 49.374 39.7993 49.3987 39.8975 49.3987C39.9196 49.3987 39.9426 49.3905 39.9648 49.3877C40.0833 49.4005 40.2037 49.3832 40.3125 49.3256C40.4143 49.2699 40.4974 49.1887 40.5549 49.09C41.1265 48.7458 42.4051 48.07 43.6536 48.07C45.3083 48.07 47.0063 49.2718 47.0239 49.2836C47.2124 49.4188 47.4602 49.4334 47.6646 49.3256C47.8681 49.2151 47.9973 48.9978 47.9973 48.7595V38.1091C47.9973 37.92 47.9159 37.741 47.7761 37.6196C47.7115 37.563 46.1489 36.2316 43.6377 36.2316C41.8795 36.2316 40.601 36.879 39.9621 37.2899C39.3215 36.879 38.0438 36.2316 36.2865 36.2316C33.7745 36.2316 32.2128 37.563 32.1482 37.6196C32.0084 37.741 31.927 37.92 31.927 38.1091V48.7595C31.927 48.9969 32.0544 49.2142 32.2579 49.3247C32.3481 49.374 32.4464 49.3987 32.5455 49.3987ZM40.6452 38.3565C41.1575 38.0351 42.2105 37.5109 43.6377 37.5109C45.1897 37.5109 46.3072 38.1346 46.7576 38.4378V47.6536C45.9825 47.2527 44.8349 46.7925 43.6536 46.7925C42.5237 46.7925 41.4247 47.2144 40.6452 47.6016V38.3565ZM33.1648 38.4378C33.617 38.1337 34.7336 37.5109 36.2848 37.5109C37.712 37.5109 38.7658 38.036 39.2773 38.3565V47.5933C38.5057 47.2071 37.4235 46.7916 36.3007 46.7916C35.1132 46.7916 33.9488 47.2573 33.1648 47.66V38.4378ZM21.217 32.8199H27.1825V35.5832C27.1825 35.9366 27.4594 36.2224 27.8019 36.2224C28.1443 36.2224 28.4213 35.9366 28.4213 35.5832V32.8199H33.2931V35.1403C33.2931 35.4937 33.5701 35.7795 33.9125 35.7795C34.255 35.7795 34.5319 35.4937 34.5319 35.1403V32.8199H39.4056V35.1403C39.4056 35.4937 39.6825 35.7795 40.0249 35.7795C40.3674 35.7795 40.6443 35.4937 40.6443 35.1403V32.8199H45.5171V35.1403C45.5171 35.4937 45.794 35.7795 46.1365 35.7795C46.4789 35.7795 46.7558 35.4937 46.7558 35.1403V32.8199H51.6295V52.1538H46.7567V50.3265C46.7567 49.9731 46.4798 49.6873 46.1374 49.6873C45.7949 49.6873 45.518 49.9731 45.518 50.3265V52.1538H40.6452V50.3265C40.6452 49.9731 40.3682 49.6873 40.0258 49.6873C39.6834 49.6873 39.4064 49.9731 39.4064 50.3265V52.1538H34.5328V50.3265C34.5328 49.9731 34.2558 49.6873 33.9134 49.6873C33.571 49.6873 33.294 49.9731 33.294 50.3265V52.1538H28.4221V50.3265C28.4221 49.9731 28.1452 49.6873 27.8028 49.6873C27.4603 49.6873 27.1834 49.9731 27.1834 50.3265V52.1538H24.4422C24.0997 52.1538 23.8228 52.4396 23.8228 52.793C23.8228 53.1464 24.0997 53.4322 24.4422 53.4322H55.3529C55.6953 53.4322 55.9722 53.1464 55.9722 52.793C55.9722 52.4396 55.6953 52.1538 55.3529 52.1538H52.8691V32.8199H59.3629C59.3682 32.819 59.3762 32.8199 59.3806 32.8199C59.723 32.8199 60 32.5341 60 32.1807C60 31.8894 59.8115 31.6437 59.5532 31.567L41.0266 22.5777V21.7431L45.1375 21.7074C45.387 21.7056 45.6109 21.5485 45.7055 21.3102C45.8002 21.0719 45.7471 20.7979 45.5711 20.6162L44.327 19.3332L45.5304 18.0912C45.7073 17.9086 45.7604 17.6337 45.664 17.3945C45.5675 17.1562 45.3419 17 45.0915 17H40.4072C40.0648 17 39.7878 17.2858 39.7878 17.6392V22.4654L20.9533 31.6027C20.6914 31.7296 20.5489 32.0282 20.6126 32.3204C20.6754 32.6126 20.9267 32.8199 21.217 32.8199ZM41.0266 18.2785H43.5952L43.0112 18.8811C42.8953 19.0008 42.8298 19.1642 42.8298 19.3332C42.8298 19.503 42.8953 19.6656 43.0112 19.7852L43.6483 20.4418L41.0266 20.4646V18.2785ZM40.2913 23.6342L56.589 31.5415H23.99L40.2913 23.6342ZM59.3629 55.7215H21.217C20.8745 55.7215 20.5976 56.0074 20.5976 56.3608C20.5976 56.7142 20.8745 57 21.217 57H59.3629C59.7053 57 59.9823 56.7142 59.9823 56.3608C59.9823 56.0074 59.7053 55.7215 59.3629 55.7215ZM30.4511 43.0201C30.4511 38.9081 27.209 35.5631 23.2246 35.5631C19.2411 35.5631 16 38.9081 16 43.0201C16 47.1313 19.2411 50.4762 23.2246 50.4762C27.209 50.4762 30.4511 47.1313 30.4511 43.0201ZM17.2388 43.0201C17.2388 39.614 19.9242 36.8416 23.2246 36.8416C26.526 36.8416 29.2123 39.6131 29.2123 43.0201C29.2123 46.4272 26.5268 49.1978 23.2246 49.1978C19.9242 49.1978 17.2388 46.4272 17.2388 43.0201ZM26.0747 44.8547C26.0747 44.5013 25.7977 44.2155 25.4553 44.2155H22.4124V43.8794H24.1555C25.4969 43.8794 26.5888 42.7535 26.5888 41.3216C26.5888 39.9372 25.4969 38.8122 24.1555 38.8122H21.793C21.4506 38.8122 21.1736 39.098 21.1736 39.4514V42.6001H20.4834C20.141 42.6001 19.8641 42.8859 19.8641 43.2393C19.8641 43.5927 20.141 43.8785 20.4834 43.8785H21.1727V44.2146H20.4834C20.141 44.2146 19.8641 44.5004 19.8641 44.8538C19.8641 45.2072 20.141 45.493 20.4834 45.493H21.1727V46.8628C21.1727 47.2162 21.4497 47.502 21.7921 47.502C22.1345 47.502 22.4115 47.2162 22.4115 46.8628V45.493H25.4535C25.7969 45.4939 26.0747 45.2081 26.0747 44.8547ZM22.4124 40.0907H24.1555C24.8138 40.0907 25.35 40.6422 25.35 41.3682C25.35 42.0476 24.8147 42.6001 24.1555 42.6001H22.4124V40.0907Z" fill="black"/>
</svg>
