<svg width="80" height="80" viewBox="0 0 80 80" fill="none" xmlns="http://www.w3.org/2000/svg">
<path d="M40 0L44.1811 0.219124L48.3165 0.874096L52.3607 1.95774L56.2695 3.45818L60 5.35898L63.5114 7.63932L66.7652 10.2742L69.7258 13.2348L72.3607 16.4886L74.641 20L76.5418 23.7305L78.0423 27.6393L79.1259 31.6835L79.7809 35.8189L80 40L79.7809 44.1811L79.1259 48.3165L78.0423 52.3607L76.5418 56.2695L74.641 60L72.3607 63.5114L69.7258 66.7652L66.7652 69.7258L63.5114 72.3607L60 74.641L56.2695 76.5418L52.3607 78.0423L48.3165 79.1259L44.1811 79.7809L40 80L35.8189 79.7809L31.6835 79.1259L27.6393 78.0423L23.7305 76.5418L20 74.641L16.4886 72.3607L13.2348 69.7258L10.2742 66.7652L7.63932 63.5114L5.35898 60L3.45818 56.2695L1.95774 52.3607L0.874096 48.3165L0.219124 44.1811L0 40L0.219124 35.8189L0.874096 31.6835L1.95774 27.6393L3.45818 23.7305L5.35898 20L7.63932 16.4886L10.2742 13.2348L13.2348 10.2742L16.4886 7.63932L20 5.35898L23.7305 3.45818L27.6393 1.95774L31.6835 0.874096L35.8189 0.219124L40 0Z" fill="#EDF2FF"/>
<path d="M48.7721 18H31.4194C29.0902 18 27.1945 19.8903 27.1945 22.2136V28.7032C27.1945 29.0764 27.4973 29.3783 27.8718 29.3783C28.2463 29.3783 28.5492 29.0764 28.5492 28.7032V22.2136C28.5492 20.6348 29.8363 19.3502 31.4184 19.3502H48.7712C50.3553 19.3502 51.6443 20.6348 51.6443 22.2136V57.7864C51.6443 59.3652 50.3553 60.6498 48.7712 60.6498H31.4194C29.8372 60.6498 28.5502 59.3652 28.5502 57.7864V50.9621C28.5502 50.5889 28.2473 50.2861 27.8728 50.2861C27.4983 50.2861 27.1954 50.5889 27.1954 50.9621V57.7864C27.1954 60.1088 29.0902 62 31.4204 62H48.7731C51.1033 62 53.001 60.1088 53.001 57.7864V22.2136C53 19.8903 51.1023 18 48.7721 18ZM37.7994 56.794C37.7994 58.0565 38.83 59.0807 40.0967 59.0807C41.3606 59.0807 42.3882 58.0555 42.3882 56.794C42.3882 55.5335 41.3596 54.5093 40.0967 54.5093C38.831 54.5083 37.7994 55.5335 37.7994 56.794ZM41.0335 56.794C41.0335 57.31 40.6135 57.7305 40.0967 57.7305C39.5771 57.7305 39.1542 57.31 39.1542 56.794C39.1542 56.28 39.5771 55.8595 40.0967 55.8595C40.6135 55.8595 41.0335 56.279 41.0335 56.794ZM44.9459 46.5296V35.4011C44.9459 34.1927 44.0198 33.209 42.8818 33.209H25.86C25.4855 33.209 25.1826 33.5109 25.1826 33.8841C25.1826 34.2573 25.4855 34.5592 25.86 34.5592H42.8818C43.2727 34.5592 43.5901 34.9363 43.5901 35.4011V46.5296C43.5901 46.9926 43.2727 47.3697 42.8818 47.3697H24.4326C24.0407 47.3697 23.7224 46.9926 23.7224 46.5296V40.5975H28.6866L27.1954 42.0846C26.9312 42.3479 26.9312 42.7761 27.1954 43.0394C27.328 43.1715 27.5002 43.2371 27.6744 43.2371C27.8486 43.2371 28.0209 43.1715 28.1534 43.0394L30.6772 40.5213C30.9414 40.258 30.9414 39.8307 30.6772 39.5665L28.0305 36.9288C27.7664 36.6655 27.3367 36.6655 27.0725 36.9288C26.8083 37.1921 26.8083 37.6203 27.0725 37.8836L28.4399 39.2463H23.7214V32.8155C23.7214 32.3516 24.0398 31.9736 24.4317 31.9736H40.748C41.1225 31.9736 41.4254 31.6717 41.4254 31.2985C41.4254 30.9252 41.1225 30.6234 40.748 30.6234H24.4326C23.2937 30.6234 22.3666 31.6071 22.3666 32.8155V39.2463H19.6774C19.3029 39.2463 19 39.5482 19 39.9214C19 40.2946 19.3029 40.5965 19.6774 40.5965H22.3666V46.5287C22.3666 47.7361 23.2937 48.7189 24.4326 48.7189H42.8818C44.0198 48.7208 44.9459 47.7371 44.9459 46.5296ZM42.1724 40.9668C42.1724 40.0188 41.3983 39.2463 40.447 39.2463C39.4958 39.2463 38.7216 40.0178 38.7216 40.9668C38.7216 41.9139 39.4958 42.6854 40.447 42.6854C41.3983 42.6854 42.1724 41.9139 42.1724 40.9668ZM40.0764 40.9668C40.0764 40.7633 40.2429 40.5975 40.447 40.5975C40.6512 40.5975 40.8177 40.7633 40.8177 40.9668C40.8177 41.1703 40.6512 41.3352 40.447 41.3352C40.2429 41.3352 40.0764 41.1703 40.0764 40.9668Z" fill="black"/>
</svg>
