<svg width="80" height="80" viewBox="0 0 80 80" fill="none" xmlns="http://www.w3.org/2000/svg">
<path d="M40 0L44.1811 0.219124L48.3165 0.874096L52.3607 1.95774L56.2695 3.45818L60 5.35898L63.5114 7.63932L66.7652 10.2742L69.7258 13.2348L72.3607 16.4886L74.641 20L76.5418 23.7305L78.0423 27.6393L79.1259 31.6835L79.7809 35.8189L80 40L79.7809 44.1811L79.1259 48.3165L78.0423 52.3607L76.5418 56.2695L74.641 60L72.3607 63.5114L69.7258 66.7652L66.7652 69.7258L63.5114 72.3607L60 74.641L56.2695 76.5418L52.3607 78.0423L48.3165 79.1259L44.1811 79.7809L40 80L35.8189 79.7809L31.6835 79.1259L27.6393 78.0423L23.7305 76.5418L20 74.641L16.4886 72.3607L13.2348 69.7258L10.2742 66.7652L7.63932 63.5114L5.35898 60L3.45818 56.2695L1.95774 52.3607L0.874096 48.3165L0.219124 44.1811L0 40L0.219124 35.8189L0.874096 31.6835L1.95774 27.6393L3.45818 23.7305L5.35898 20L7.63932 16.4886L10.2742 13.2348L13.2348 10.2742L16.4886 7.63932L20 5.35898L23.7305 3.45818L27.6393 1.95774L31.6835 0.874096L35.8189 0.219124L40 0Z" fill="#EDF2FF"/>
<path d="M66.9995 36.1343V43.6142H64.3811V38.3688H61.8606V43.6142H59.2422V36.1343H66.9995Z" fill="#585857"/>
<path d="M58.001 40.3002C58.001 42.478 56.2008 43.9163 53.7756 43.9163C51.2697 43.9163 49.4414 42.3942 49.4414 38.9469C49.4414 35.9877 51.3162 33.5486 54.0924 33.503C55.3068 33.503 57.9191 33.4451 57.9191 33.4451L56.7438 35.6216C56.7438 35.6216 54.6635 35.6241 54.3859 35.6241C53.1886 35.6241 52.1014 36.5312 51.9485 37.7748C52.5857 37.1746 53.4307 36.8246 54.4556 36.8246C56.6728 36.8246 58.001 38.1926 58.001 40.3002ZM55.3141 40.3002C55.3141 39.3228 54.6904 38.7509 53.7915 38.7509C52.8633 38.7509 52.2396 39.3376 52.2396 40.315C52.2396 41.2356 52.8633 41.9073 53.7915 41.9073C54.7613 41.9061 55.3141 41.1802 55.3141 40.3002Z" fill="#585857"/>
<path d="M47.3671 41.3538C47.3671 41.3538 46.7349 41.7137 45.7895 41.7815C44.7023 41.8123 43.7361 41.1393 43.7361 39.9377C43.7361 38.7656 44.5898 38.0963 45.7614 38.0963C46.4805 38.0963 47.4319 38.5869 47.4319 38.5869C47.4319 38.5869 48.1278 37.3285 48.4886 36.7011C47.8282 36.2081 46.9489 35.9382 45.9277 35.9382C43.346 35.9382 41.3477 37.5947 41.3477 39.9241C41.3477 42.2819 43.2261 43.9013 45.9277 43.852C46.6835 43.8237 47.7242 43.5636 48.3577 43.1618L47.3671 41.3538Z" fill="#585857"/>
<path d="M14 31.531L17.6176 38.025V41.9837L14.0061 48.4666L14 31.531Z" fill="#878787"/>
<path d="M27.8867 35.6611L31.2744 33.5745L38.2062 33.5696L27.8867 39.9218V35.6611Z" fill="#9E9D9C"/>
<path d="M27.867 31.4927L27.8866 40.0906L24.2617 37.8536V25.0012L27.867 31.4927Z" fill="#878787"/>
<path d="M38.2061 33.5695L31.2742 33.5744L27.867 31.4927L24.2617 25L38.2061 33.5695Z" fill="#B3B2B2"/>
<path d="M27.8866 48.5023V44.3303L24.2617 42.1365L24.2629 55L27.8866 48.5023Z" fill="#878787"/>
<path d="M31.2647 46.4355L17.6176 38.025L14 31.531L38.1929 46.4269L31.2647 46.4355Z" fill="#B3B2B2"/>
<path d="M24.2617 54.9999L27.8854 48.5023L31.2645 46.4354L38.1926 46.4268L24.2617 54.9999Z" fill="#9E9D9C"/>
<path d="M14.0059 48.4666L24.2886 42.1366L20.8313 40.0056L17.6173 41.9838L14.0059 48.4666Z" fill="#9E9D9C"/>
</svg>
