<svg width="80" height="80" viewBox="0 0 80 80" fill="none" xmlns="http://www.w3.org/2000/svg">
<path d="M40 0L44.1811 0.219124L48.3165 0.874096L52.3607 1.95774L56.2695 3.45818L60 5.35898L63.5114 7.63932L66.7652 10.2742L69.7258 13.2348L72.3607 16.4886L74.641 20L76.5418 23.7305L78.0423 27.6393L79.1259 31.6835L79.7809 35.8189L80 40L79.7809 44.1811L79.1259 48.3165L78.0423 52.3607L76.5418 56.2695L74.641 60L72.3607 63.5114L69.7258 66.7652L66.7652 69.7258L63.5114 72.3607L60 74.641L56.2695 76.5418L52.3607 78.0423L48.3165 79.1259L44.1811 79.7809L40 80L35.8189 79.7809L31.6835 79.1259L27.6393 78.0423L23.7305 76.5418L20 74.641L16.4886 72.3607L13.2348 69.7258L10.2742 66.7652L7.63932 63.5114L5.35898 60L3.45818 56.2695L1.95774 52.3607L0.874096 48.3165L0.219124 44.1811L0 40L0.219124 35.8189L0.874096 31.6835L1.95774 27.6393L3.45818 23.7305L5.35898 20L7.63932 16.4886L10.2742 13.2348L13.2348 10.2742L16.4886 7.63932L20 5.35898L23.7305 3.45818L27.6393 1.95774L31.6835 0.874096L35.8189 0.219124L40 0Z" fill="#EDF2FF"/>
<path d="M55.3033 17H40.5927C40.5758 17 40.5618 17.0079 40.5449 17.0098C40.4852 17.0138 40.4275 17.0256 40.3717 17.0442C40.3469 17.0521 40.323 17.058 40.2991 17.0688C40.2284 17.1012 40.1617 17.1425 40.104 17.1975L40.101 17.2005C40.1 17.2015 40.1 17.2015 40.099 17.2024L24.208 32.6252C24.208 32.6252 24.207 32.6262 24.207 32.6272C24.2011 32.6331 24.1971 32.6409 24.1911 32.6478C24.1403 32.7009 24.1005 32.7608 24.0707 32.8247C24.0597 32.8463 24.0537 32.8699 24.0458 32.8935C24.0249 32.9515 24.0129 33.0104 24.009 33.0714C24.008 33.0871 24 33.0999 24 33.1156V51.119C24 55.1343 27.3392 57.1902 30.9472 58.8117C35.2857 60.7633 40.2633 62.9194 40.313 62.9401C40.4026 62.9803 40.4981 63 40.5927 63C40.7261 63 40.8584 62.9617 40.9739 62.887C41.171 62.7602 41.2894 62.543 41.2894 62.3111V57.3592C42.641 56.7715 47.0781 54.8425 49.856 53.6721C54.0472 51.9041 56 49.0159 56 44.5819V17.6879C56 17.3076 55.6885 17 55.3033 17ZM40.2742 48.2514C40.0423 48.3683 39.896 48.6042 39.896 48.8636V52.6048L32.6024 49.8355V33.8035H40.5927C40.9779 33.8035 41.2894 33.4959 41.2894 33.1156V25.5536H47.3687V44.6556L40.2742 48.2514ZM39.896 19.329V32.4277H26.3997L39.896 19.329ZM39.896 61.2567C38.2289 60.5314 34.7045 58.9895 31.5255 57.5597C27.8449 55.9038 25.3934 54.1762 25.3934 51.119V33.8035H31.208V50.3062C31.208 50.5922 31.3861 50.8477 31.6549 50.9489L39.896 54.0779V61.2567ZM54.6066 44.5819C54.6066 48.4469 52.9723 50.8615 49.3096 52.4063C46.8432 53.445 43.0611 55.0862 41.2894 55.8557V49.2832L48.3839 45.6885C48.6158 45.5696 48.7631 45.3337 48.7631 45.0752V24.8647C48.7631 24.4844 48.4516 24.1768 48.0664 24.1768H41.2894V18.3758H54.6066V44.5819Z" fill="#111111"/>
</svg>
