<svg width="80" height="80" viewBox="0 0 80 80" fill="none" xmlns="http://www.w3.org/2000/svg">
<path d="M40 0L44.1811 0.219124L48.3165 0.874096L52.3607 1.95774L56.2695 3.45818L60 5.35898L63.5114 7.63932L66.7652 10.2742L69.7258 13.2348L72.3607 16.4886L74.641 20L76.5418 23.7305L78.0423 27.6393L79.1259 31.6835L79.7809 35.8189L80 40L79.7809 44.1811L79.1259 48.3165L78.0423 52.3607L76.5418 56.2695L74.641 60L72.3607 63.5114L69.7258 66.7652L66.7652 69.7258L63.5114 72.3607L60 74.641L56.2695 76.5418L52.3607 78.0423L48.3165 79.1259L44.1811 79.7809L40 80L35.8189 79.7809L31.6835 79.1259L27.6393 78.0423L23.7305 76.5418L20 74.641L16.4886 72.3607L13.2348 69.7258L10.2742 66.7652L7.63932 63.5114L5.35898 60L3.45818 56.2695L1.95774 52.3607L0.874096 48.3165L0.219124 44.1811L0 40L0.219124 35.8189L0.874096 31.6835L1.95774 27.6393L3.45818 23.7305L5.35898 20L7.63932 16.4886L10.2742 13.2348L13.2348 10.2742L16.4886 7.63932L20 5.35898L23.7305 3.45818L27.6393 1.95774L31.6835 0.874096L35.8189 0.219124L40 0Z" fill="#EDF2FF"/>
<path d="M59.3483 35.9285C59.3431 35.9285 59.3379 35.9285 59.3316 35.9285C58.927 35.9368 58.6062 36.2658 58.6136 36.6616C58.6178 36.8399 58.6209 37.0193 58.6209 37.1977C58.6209 47.4854 50.0615 55.855 39.541 55.855C29.0237 55.855 20.4674 47.4854 20.4674 37.1977C20.4674 26.909 29.0237 18.5394 39.541 18.5394C42.13 18.5394 44.6393 19.0366 46.9998 20.0177C47.3688 20.1715 47.8038 20.0023 47.962 19.6384C48.1203 19.2734 47.9463 18.8521 47.5732 18.6973C45.0303 17.6393 42.3281 17.1031 39.541 17.1031C28.2155 17.1041 19 26.1186 19 37.1977C19 48.1118 27.9472 57.0033 39.0421 57.2657V60.5647H32.5445C32.1388 60.5647 31.8108 60.8856 31.8108 61.2824C31.8108 61.6791 32.1388 62 32.5445 62H47.003C47.4086 62 47.7367 61.6791 47.7367 61.2824C47.7367 60.8856 47.4086 60.5647 47.003 60.5647H40.5106V57.2431C51.3896 56.7439 60.0904 47.9581 60.0904 37.1988C60.0904 37.0101 60.0873 36.8205 60.0831 36.6318C60.0737 36.2402 59.7466 35.9285 59.3483 35.9285ZM40.2758 24.6454V20.1653C40.2758 19.7686 39.9477 19.4477 39.5421 19.4477C39.1364 19.4477 38.8084 19.7686 38.8084 20.1653V24.6454C38.8084 25.0421 39.1364 25.363 39.5421 25.363C39.9477 25.363 40.2758 25.0411 40.2758 24.6454ZM52.378 37.9154L56.9554 37.9133C57.361 37.9133 57.6891 37.5914 57.6891 37.1947C57.6891 36.7989 57.361 36.477 56.9554 36.477L52.378 36.4791C51.9724 36.4791 51.6443 36.801 51.6443 37.1977C51.6443 37.5945 51.9724 37.9154 52.378 37.9154ZM27.4441 37.1957C27.4441 36.8 27.116 36.478 26.7104 36.478L22.1298 36.4801C21.7252 36.4801 21.3961 36.802 21.3961 37.1988C21.3961 37.5945 21.7242 37.9164 22.1298 37.9164L26.7104 37.9143C27.1149 37.9133 27.4441 37.5924 27.4441 37.1957ZM30.4691 29.0403C30.6567 29.0403 30.8443 28.9706 30.9879 28.8302C31.2741 28.5503 31.2741 28.0951 30.9879 27.8152L27.748 24.6464C27.4619 24.3665 26.9965 24.3665 26.7104 24.6464C26.4242 24.9263 26.4242 25.3815 26.7104 25.6613L29.9513 28.8302C30.0939 28.9696 30.2815 29.0403 30.4691 29.0403ZM46.4841 29.392L41.5451 34.2216C40.9697 33.8505 40.2821 33.6311 39.5421 33.6311C37.5327 33.6311 35.8976 35.2314 35.8976 37.1977C35.8976 39.163 37.5327 40.7613 39.5421 40.7613C41.5535 40.7613 43.1897 39.162 43.1897 37.1977C43.1897 36.4729 42.9644 35.7994 42.5828 35.2355L47.5208 30.4069C47.8069 30.127 47.8069 29.6719 47.5208 29.392C47.2346 29.1121 46.7703 29.1121 46.4841 29.392ZM39.5421 39.326C38.3419 39.326 37.3661 38.3716 37.3661 37.1977C37.3661 36.0229 38.3419 35.0664 39.5421 35.0664C40.7443 35.0664 41.7223 36.0218 41.7223 37.1977C41.7223 38.3716 40.7443 39.326 39.5421 39.326ZM34.5549 26.2928C34.6492 26.2928 34.7456 26.2744 34.8389 26.2365C35.2121 26.0827 35.3882 25.6613 35.232 25.2964L33.4784 21.2161C33.3212 20.8512 32.8904 20.68 32.5172 20.8317C32.1441 20.9855 31.968 21.4068 32.1242 21.7718L33.8778 25.852C33.9962 26.1278 34.2687 26.2928 34.5549 26.2928ZM23.4925 44.5104C23.5868 44.5104 23.6832 44.4919 23.7765 44.454L27.9472 42.7399C28.3203 42.5861 28.4964 42.1647 28.3403 41.7998C28.183 41.4348 27.7512 41.2626 27.3791 41.4164L23.2084 43.1305C22.8353 43.2842 22.6592 43.7056 22.8153 44.0706C22.9327 44.3443 23.2053 44.5104 23.4925 44.5104ZM50.7491 41.6737C50.5961 42.0397 50.7743 42.459 51.1506 42.6086L55.3852 44.3033C55.4753 44.3402 55.5697 44.3576 55.663 44.3576C55.9512 44.3576 56.2258 44.1895 56.3411 43.9106C56.4942 43.5446 56.316 43.1253 55.9397 42.9757L51.7051 41.281C51.3372 41.1303 50.9022 41.3056 50.7491 41.6737ZM27.9399 31.7837L23.7042 30.0871C23.33 29.9374 22.9002 30.1117 22.7472 30.4797C22.5942 30.8457 22.7734 31.266 23.1487 31.4157L27.3843 33.1124C27.4745 33.1483 27.5688 33.1657 27.6621 33.1657C27.9514 33.1657 28.225 32.9975 28.3413 32.7197C28.4943 32.3537 28.3151 31.9344 27.9399 31.7837ZM44.3962 26.2928C44.6844 26.2928 44.959 26.1247 45.0754 25.8459L46.807 21.7C46.96 21.333 46.7808 20.9137 46.4045 20.764C46.0324 20.6154 45.6016 20.7886 45.4475 21.1567L43.7159 25.3025C43.5629 25.6695 43.7421 26.0888 44.1184 26.2385C44.2106 26.2754 44.3039 26.2928 44.3962 26.2928ZM47.9704 45.8974H31.1169C30.7112 45.8974 30.3832 46.2183 30.3832 46.6151C30.3832 47.0118 30.7112 47.3327 31.1169 47.3327H47.9704C48.3761 47.3327 48.7042 47.0118 48.7042 46.6151C48.7042 46.2183 48.375 45.8974 47.9704 45.8974ZM31.1169 48.6911C30.7112 48.6911 30.3832 49.0119 30.3832 49.4087C30.3832 49.8054 30.7112 50.1263 31.1169 50.1263H40.3586C40.7642 50.1263 41.0923 49.8054 41.0923 49.4087C41.0923 49.0119 40.7642 48.6911 40.3586 48.6911H31.1169ZM47.9704 48.6911H42.456C42.0504 48.6911 41.7223 49.0119 41.7223 49.4087C41.7223 49.8054 42.0504 50.1263 42.456 50.1263H47.9704C48.3761 50.1263 48.7042 49.8054 48.7042 49.4087C48.7042 49.0119 48.375 48.6911 47.9704 48.6911ZM57.2101 16C51.812 16 47.4191 20.2955 47.4191 25.5762C47.4191 30.857 51.8109 35.1525 57.2101 35.1525C62.6092 35.1525 67 30.857 67 25.5762C67 20.2955 62.6082 16 57.2101 16ZM57.2101 33.7172C52.6201 33.7172 48.8876 30.0655 48.8876 25.5762C48.8876 21.088 52.6212 17.4363 57.2101 17.4363C61.799 17.4363 65.5315 21.088 65.5315 25.5762C65.5326 30.0655 61.799 33.7172 57.2101 33.7172ZM63.4635 25.5752C63.4593 25.5158 63.4467 25.4583 63.4289 25.4009C63.4205 25.3763 63.4132 25.3528 63.4027 25.3292C63.367 25.2523 63.322 25.1785 63.258 25.1159L60.5862 22.4997C60.3011 22.2208 59.8347 22.2177 59.5485 22.4997C59.2624 22.7795 59.2624 23.2337 59.5485 23.5146L60.9688 24.9058H51.0646C50.659 24.9058 50.3309 25.2267 50.3309 25.6234C50.3309 26.0201 50.659 26.341 51.0646 26.341H60.9657L59.645 27.6307C59.3588 27.9106 59.3588 28.3647 59.645 28.6456C59.7886 28.7861 59.9751 28.8568 60.1638 28.8568C60.3514 28.8568 60.5391 28.7871 60.6827 28.6467L63.257 26.1309C63.2643 26.1237 63.2664 26.1145 63.2727 26.1083C63.3314 26.0468 63.3817 25.9791 63.4163 25.8982C63.4163 25.8982 63.4163 25.8982 63.4163 25.8971C63.4205 25.8879 63.4205 25.8776 63.4247 25.8684C63.4498 25.7977 63.4645 25.7249 63.4666 25.6531C63.4677 25.6265 63.4645 25.6008 63.4635 25.5752Z" fill="#111111"/>
</svg>
