<svg width="80" height="80" viewBox="0 0 80 80" fill="none" xmlns="http://www.w3.org/2000/svg">
<path d="M40 0L44.1811 0.219124L48.3165 0.874096L52.3607 1.95774L56.2695 3.45818L60 5.35898L63.5114 7.63932L66.7652 10.2742L69.7258 13.2348L72.3607 16.4886L74.641 20L76.5418 23.7305L78.0423 27.6393L79.1259 31.6835L79.7809 35.8189L80 40L79.7809 44.1811L79.1259 48.3165L78.0423 52.3607L76.5418 56.2695L74.641 60L72.3607 63.5114L69.7258 66.7652L66.7652 69.7258L63.5114 72.3607L60 74.641L56.2695 76.5418L52.3607 78.0423L48.3165 79.1259L44.1811 79.7809L40 80L35.8189 79.7809L31.6835 79.1259L27.6393 78.0423L23.7305 76.5418L20 74.641L16.4886 72.3607L13.2348 69.7258L10.2742 66.7652L7.63932 63.5114L5.35898 60L3.45818 56.2695L1.95774 52.3607L0.874096 48.3165L0.219124 44.1811L0 40L0.219124 35.8189L0.874096 31.6835L1.95774 27.6393L3.45818 23.7305L5.35898 20L7.63932 16.4886L10.2742 13.2348L13.2348 10.2742L16.4886 7.63932L20 5.35898L23.7305 3.45818L27.6393 1.95774L31.6835 0.874096L35.8189 0.219124L40 0Z" fill="#EDF2FF"/>
<path d="M58.5533 30.0188L59.6459 27.1047C59.6966 26.9694 59.7013 26.8212 59.6591 26.683C59.617 26.5448 59.5305 26.4243 59.4129 26.3404C59.2953 26.2564 59.1533 26.2135 59.009 26.2185C58.8646 26.2234 58.7258 26.2759 58.6143 26.3677L48.0981 35.0289C47.8109 35.2664 47.5969 35.5804 47.481 35.9346C47.365 36.2887 47.3519 36.6685 47.443 37.0298C47.502 37.2609 47.5679 37.5163 47.6317 37.7605C47.6794 37.9447 47.6685 38.1391 47.6005 38.3168C47.5325 38.4944 47.4107 38.6465 47.2522 38.7516L47.2264 38.7689C47.0583 38.881 46.8573 38.9331 46.6559 38.9167C46.4545 38.9004 46.2645 38.8165 46.1168 38.6786L44.5541 36.4548L44.1788 34.5777C44.1143 34.26 44.1135 33.9326 44.1764 33.6145C44.2393 33.2964 44.3647 32.994 44.5453 32.7246C44.8504 32.2686 45.2981 31.9266 45.8184 31.7522C46.0383 31.6783 46.2707 31.6486 46.5021 31.6651C46.7335 31.6815 46.9593 31.7437 47.1665 31.8481L48.8942 32.7119C49.0065 32.768 49.1325 32.7907 49.2573 32.7774C49.382 32.7641 49.5004 32.7153 49.5983 32.6367C49.6962 32.5582 49.7695 32.4533 49.8095 32.3344C49.8496 32.2154 49.8547 32.0875 49.8243 31.9658L49.4033 30.2815C49.2664 29.7338 48.9648 29.2411 48.5392 28.8701L49.0634 26.262C49.1256 25.9477 49.0711 25.6214 48.9102 25.3443C48.7493 25.0673 48.493 24.8583 48.1891 24.7565L47.3097 24.4612L47.3015 24.4585C47.2744 24.4498 47.2467 24.4433 47.2195 24.4356V23.5938C47.2195 23.4197 47.1504 23.2528 47.0273 23.1297C46.9042 23.0066 46.7373 22.9375 46.5633 22.9375C46.3892 22.9375 46.2223 23.0066 46.0992 23.1297C45.9761 23.2528 45.907 23.4197 45.907 23.5938V24.4353C45.8796 24.443 45.8518 24.4495 45.825 24.4582L45.8168 24.4609L44.939 24.7558C44.6348 24.8574 44.3781 25.0665 44.2169 25.3438C44.0558 25.6211 44.0012 25.9477 44.0635 26.2623L44.4857 28.3632C44.1575 28.4426 43.8364 28.5487 43.5255 28.6805L42.6944 27.4336L43.514 24.9747C43.6723 24.4983 43.6429 23.9795 43.4317 23.5241C43.2205 23.0687 42.8434 22.711 42.3775 22.5241L40.6578 21.8363V20.9688C40.6578 20.7947 40.5887 20.6278 40.4656 20.5047C40.3425 20.3816 40.1756 20.3125 40.0016 20.3125C39.8275 20.3125 39.6606 20.3816 39.5375 20.5047C39.4145 20.6278 39.3453 20.7947 39.3453 20.9688V21.8366L37.6242 22.5244C37.1583 22.7113 36.7813 23.069 36.5701 23.5243C36.3589 23.9797 36.3294 24.4985 36.4877 24.9749L37.3074 27.4339L36.4763 28.6808C36.1654 28.5489 35.8442 28.4428 35.516 28.3635L35.9384 26.262C36.0007 25.9476 35.9462 25.6213 35.7853 25.3441C35.6244 25.067 35.3679 24.858 35.064 24.7562L34.1847 24.4609L34.1765 24.4582C34.1493 24.4494 34.1215 24.443 34.0944 24.4353V23.5938C34.0944 23.4197 34.0253 23.2528 33.9022 23.1297C33.7791 23.0066 33.6122 22.9375 33.4382 22.9375C33.2641 22.9375 33.0972 23.0066 32.9741 23.1297C32.8511 23.2528 32.7819 23.4197 32.7819 23.5938V24.4353C32.7544 24.443 32.7267 24.4495 32.6999 24.4582L32.6917 24.4609L31.814 24.7558C31.5097 24.8574 31.253 25.0665 31.0918 25.3438C30.9306 25.6211 30.8761 25.9477 30.9384 26.2623L31.4624 28.8698C31.0368 29.2408 30.7353 29.7334 30.5984 30.2812L30.1773 31.9654C30.1468 32.0872 30.152 32.2151 30.192 32.3341C30.2321 32.453 30.3054 32.558 30.4033 32.6365C30.5012 32.715 30.6196 32.7638 30.7444 32.7771C30.8692 32.7904 30.9952 32.7676 31.1074 32.7115L32.8352 31.8477C33.0424 31.7434 33.2682 31.6812 33.4996 31.6648C33.731 31.6483 33.9634 31.678 34.1833 31.7519C34.7035 31.9263 35.1513 32.2683 35.4563 32.7244C35.6369 32.9937 35.7623 33.2961 35.8252 33.6142C35.8881 33.9323 35.8874 34.2596 35.8229 34.5774L35.4476 36.4541L33.8849 38.678C33.7371 38.8159 33.5471 38.8999 33.3456 38.9163C33.1441 38.9326 32.943 38.8805 32.7749 38.7682L32.7494 38.7513C32.591 38.6461 32.4692 38.4941 32.4012 38.3165C32.3332 38.1389 32.3222 37.9444 32.3699 37.7603C32.4339 37.5161 32.4996 37.2606 32.5585 37.0296C32.6497 36.6682 32.6366 36.2884 32.5206 35.9343C32.4047 35.5801 32.1907 35.2661 31.9035 35.0286L21.3861 26.368C21.2746 26.2762 21.1358 26.2237 20.9914 26.2187C20.8471 26.2137 20.705 26.2565 20.5875 26.3404C20.4699 26.4244 20.3833 26.5448 20.3411 26.683C20.2989 26.8211 20.3035 26.9694 20.3542 27.1047L21.4468 30.0185C22.0617 31.6558 23.091 33.1055 24.434 34.2257L24.7352 34.4767L21.7063 34.0981C21.5816 34.0825 21.455 34.1031 21.3416 34.1573C21.2282 34.2116 21.1327 34.2973 21.0666 34.4043C21.0005 34.5112 20.9666 34.6349 20.9687 34.7606C20.9709 34.8863 21.0091 35.0087 21.0789 35.1133C22.0061 36.5101 23.3515 37.5777 24.9224 38.1633L25.3874 38.3376L22.2087 38.6908C22.0722 38.706 21.9439 38.7635 21.8419 38.8555C21.7399 38.9474 21.6693 39.069 21.64 39.2031C21.6107 39.3373 21.6243 39.4772 21.6787 39.6033C21.7332 39.7293 21.8258 39.8351 21.9435 39.9057L23.094 40.5964C24.4712 41.4242 25.9833 42.003 27.5613 42.3061C26.5567 42.9963 25.6929 43.8718 25.0164 44.8856C24.9504 44.9845 24.9125 45.0994 24.9067 45.2181C24.901 45.3368 24.9275 45.4549 24.9836 45.5597C25.0397 45.6645 25.1232 45.7521 25.2252 45.8131C25.3272 45.8741 25.4438 45.9063 25.5627 45.9062H25.8215C27.0954 45.9074 28.353 45.6203 29.5002 45.0665V46.5625C29.5002 46.6923 29.5387 46.8191 29.6108 46.927C29.6829 47.0349 29.7854 47.119 29.9053 47.1687C30.0252 47.2183 30.1571 47.2313 30.2844 47.206C30.4117 47.1807 30.5286 47.1182 30.6204 47.0265L32.1252 45.5218L32.9736 46.3702C33.0423 46.4389 33.1253 46.4914 33.2167 46.5241C33.3082 46.5568 33.4057 46.5688 33.5023 46.5592C33.5989 46.5497 33.6922 46.5188 33.7755 46.4688C33.8587 46.4188 33.9298 46.351 33.9837 46.2702L34.5681 45.3936C34.7717 45.0877 35.0643 44.8517 35.4064 44.7176V44.8168C35.4054 45.3389 35.1986 45.8395 34.8308 46.21L34.3649 46.6759C33.8612 47.177 33.4619 47.773 33.1901 48.4294C32.9183 49.0858 32.7794 49.7896 32.7814 50.5C32.7815 50.661 32.8408 50.8163 32.9479 50.9364C33.0551 51.0566 33.2026 51.1331 33.3625 51.1516L32.9857 51.9053L32.1665 52.1104L30.492 50.2377C30.7186 49.8778 30.8225 49.4542 30.788 49.0303C30.7535 48.6064 30.5826 48.2051 30.3009 47.8866C30.0191 47.568 29.6417 47.3493 29.2252 47.2633C28.8087 47.1774 28.3756 47.2287 27.9907 47.4096C27.6059 47.5905 27.29 47.8913 27.0905 48.2669C26.891 48.6424 26.8185 49.0726 26.8841 49.4927C26.9496 49.9129 27.1495 50.3006 27.4539 50.5976C27.7583 50.8945 28.1508 51.0849 28.5725 51.14C28.6578 51.1512 28.7437 51.1568 28.8297 51.1568C29.0436 51.1562 29.256 51.1205 29.4583 51.0509L30.7273 52.4701L30.6535 52.4885C30.5698 52.5094 30.4912 52.5466 30.4219 52.5979C30.3527 52.6492 30.2942 52.7137 30.2499 52.7876C30.1603 52.9368 30.1337 53.1155 30.176 53.2844C30.2182 53.4532 30.3257 53.5984 30.475 53.688C30.6242 53.7775 30.803 53.8041 30.9718 53.7619L31.7183 53.5754L32.2942 54.2143C32.3519 54.2783 32.4217 54.3303 32.4995 54.3674C32.5773 54.4045 32.6617 54.4258 32.7477 54.4303C32.8338 54.4348 32.9199 54.4222 33.0011 54.3934C33.0823 54.3646 33.1571 54.3201 33.2211 54.2624C33.2851 54.2047 33.3372 54.1349 33.3742 54.0571C33.4113 53.9793 33.4326 53.895 33.4371 53.8089C33.4416 53.7228 33.429 53.6367 33.4002 53.5555C33.3714 53.4743 33.3269 53.3995 33.2692 53.3355L33.1604 53.2148L33.5971 53.1056C33.689 53.0827 33.7748 53.0401 33.8486 52.9809C33.9225 52.9216 33.9826 52.8471 34.0249 52.7624L34.8276 51.1562H35.4064C35.5283 51.1562 35.6478 51.1223 35.7514 51.0582C35.8551 50.9941 35.9389 50.9024 35.9934 50.7934C36.2669 50.2429 36.6728 49.7688 37.1746 49.4137L37.3612 49.6936L35.8133 52.4025C35.1171 53.622 34.7507 55.002 34.7502 56.4062C34.7502 56.5803 34.8193 56.7472 34.9424 56.8703C35.0655 56.9934 35.2324 57.0625 35.4064 57.0625C35.5805 57.0625 35.7474 56.9934 35.8705 56.8703C35.9935 56.7472 36.0627 56.5803 36.0627 56.4062C36.0632 55.2304 36.37 54.0749 36.953 53.0537L37.8493 51.4851L37.7707 51.6815C37.0625 53.442 36.9309 55.3816 37.3948 57.2216C37.4154 57.3056 37.4523 57.3846 37.5035 57.4543C37.5548 57.5239 37.6192 57.5827 37.6932 57.6273C37.7673 57.672 37.8494 57.7015 37.9348 57.7144C38.0203 57.7272 38.1075 57.723 38.1913 57.702C38.2752 57.6811 38.3541 57.6437 38.4235 57.5922C38.4928 57.5407 38.5514 57.4759 38.5957 57.4017C38.64 57.3275 38.6692 57.2453 38.6816 57.1597C38.694 57.0742 38.6894 56.987 38.6681 56.9033C38.2717 55.3309 38.3842 53.6733 38.9894 52.1689L38.9976 52.1481L39.3438 52.6673V59.0312C39.3438 59.2053 39.4129 59.3722 39.536 59.4953C39.659 59.6184 39.826 59.6875 40 59.6875C40.1741 59.6875 40.341 59.6184 40.4641 59.4953C40.5871 59.3722 40.6563 59.2053 40.6563 59.0312V52.667L41.0024 52.1478L41.0106 52.1686C41.6158 53.673 41.7283 55.3306 41.332 56.903C41.3106 56.9867 41.306 57.0739 41.3184 57.1594C41.3309 57.2449 41.3601 57.3272 41.4044 57.4014C41.4487 57.4756 41.5072 57.5403 41.5766 57.5919C41.646 57.6434 41.7248 57.6807 41.8087 57.7017C41.8925 57.7227 41.9797 57.7269 42.0652 57.714C42.1507 57.7012 42.2328 57.6716 42.3068 57.627C42.3808 57.5824 42.4453 57.5236 42.4965 57.4539C42.5477 57.3843 42.5847 57.3053 42.6052 57.2213C43.069 55.3813 42.9374 53.4416 42.2292 51.6812L42.1506 51.4843L43.0471 53.0531C43.6302 54.0745 43.9372 55.2302 43.9377 56.4062C43.9377 56.5803 44.0068 56.7472 44.1299 56.8703C44.253 56.9934 44.4199 57.0625 44.5939 57.0625C44.768 57.0625 44.9349 56.9934 45.058 56.8703C45.181 56.7472 45.2502 56.5803 45.2502 56.4062C45.2496 55.002 44.8831 53.6221 44.187 52.4025L42.639 49.6936L42.8256 49.4137C43.3274 49.7688 43.7332 50.2429 44.0068 50.7934C44.0613 50.9025 44.1451 50.9942 44.2488 51.0583C44.3525 51.1223 44.472 51.1563 44.5939 51.1562H45.1727L45.9757 52.7622C46.018 52.8468 46.0781 52.9212 46.1519 52.9804C46.2256 53.0396 46.3113 53.0822 46.403 53.1052L48.1006 53.5311C48.2805 53.9376 48.5608 54.2918 48.9151 54.5604C49.2694 54.829 49.6861 55.0032 50.1262 55.0667C50.5662 55.1302 51.0152 55.0809 51.431 54.9234C51.8467 54.7658 52.2157 54.5053 52.5032 54.1662C52.7907 53.827 52.9874 53.4204 53.0748 52.9845C53.1622 52.5486 53.1374 52.0976 53.0028 51.6738C52.8682 51.2501 52.6281 50.8675 52.3052 50.5619C51.9822 50.2563 51.587 50.0378 51.1564 49.9268V49.1875C51.1564 49.0135 51.0873 48.8465 50.9642 48.7235C50.8411 48.6004 50.6742 48.5312 50.5002 48.5312C50.3261 48.5312 50.1592 48.6004 50.0361 48.7235C49.9131 48.8465 49.8439 49.0135 49.8439 49.1875V49.9268C49.3376 50.0586 48.8821 50.3383 48.5355 50.7302C48.1889 51.1221 47.967 51.6085 47.8981 52.1271L47.0148 51.9056L46.6375 51.1517C46.7975 51.1333 46.9451 51.0568 47.0523 50.9366C47.1596 50.8164 47.2188 50.661 47.2189 50.5C47.221 49.7896 47.0821 49.0858 46.8104 48.4294C46.5386 47.773 46.1394 47.177 45.6357 46.6759L45.1698 46.21C44.802 45.8395 44.5952 45.3389 44.5942 44.8168V44.7176C44.9362 44.8517 45.2289 45.0877 45.4324 45.3936L46.0169 46.2702C46.0708 46.351 46.1419 46.4188 46.2251 46.4688C46.3084 46.5188 46.4017 46.5497 46.4983 46.5592C46.5949 46.5688 46.6924 46.5568 46.7839 46.5241C46.8753 46.4914 46.9583 46.4389 47.027 46.3702L47.8754 45.5218L49.3801 47.0265C49.4719 47.1182 49.5888 47.1806 49.7161 47.2059C49.8433 47.2311 49.9752 47.2181 50.0951 47.1685C50.2149 47.1188 50.3174 47.0348 50.3895 46.9269C50.4616 46.819 50.5001 46.6922 50.5002 46.5625V45.0662C51.6473 45.6201 52.905 45.9073 54.1789 45.9062H54.4377C54.5565 45.9062 54.673 45.874 54.7749 45.813C54.8768 45.7519 54.9602 45.6644 55.0163 45.5596C55.0723 45.4549 55.0989 45.3369 55.0931 45.2183C55.0874 45.0996 55.0496 44.9848 54.9837 44.8859C54.3072 43.8721 53.4435 42.9966 52.4389 42.3065C54.0168 42.0033 55.529 41.4245 56.9061 40.5967L58.0566 39.9064C58.1743 39.8358 58.2669 39.73 58.3214 39.6039C58.3758 39.4779 58.3894 39.3379 58.3601 39.2038C58.3308 39.0696 58.2602 38.948 58.1582 38.8561C58.0562 38.7642 57.9279 38.7066 57.7914 38.6914L54.6127 38.3383L55.0776 38.164C56.6485 37.5783 57.9939 36.5107 58.9213 35.114C58.9911 35.0094 59.0294 34.8869 59.0316 34.7611C59.0339 34.6353 58.9999 34.5116 58.9337 34.4045C58.8676 34.2975 58.7721 34.2118 58.6586 34.1575C58.5451 34.1032 58.4184 34.0827 58.2936 34.0984L55.2647 34.477L55.5659 34.2261C56.909 33.1058 57.9384 31.6561 58.5533 30.0188ZM28.7433 49.838C28.5784 49.8161 28.4279 49.7323 28.3224 49.6036C28.2169 49.475 28.1642 49.3111 28.175 49.145C28.1858 48.979 28.2592 48.8233 28.3804 48.7093C28.5017 48.5954 28.6616 48.5317 28.828 48.5312C28.9636 48.531 29.0959 48.5728 29.2068 48.651C29.3176 48.7291 29.4014 48.8397 29.4468 48.9675C29.4921 49.0953 29.4966 49.234 29.4598 49.3645C29.423 49.495 29.3466 49.6108 29.2411 49.6961C29.2283 49.7049 29.2159 49.7144 29.2036 49.7241C29.0697 49.8183 28.9055 49.8589 28.7433 49.838ZM50.5002 53.7812C50.2701 53.7809 50.0441 53.7201 49.8449 53.605C49.6457 53.4898 49.4803 53.3243 49.3653 53.125H51.6351C51.52 53.3243 51.3546 53.4898 51.1554 53.605C50.9562 53.7201 50.7303 53.7809 50.5002 53.7812ZM51.6351 51.8125H51.1564V51.3338C51.3549 51.4491 51.5199 51.614 51.6351 51.8125ZM49.8439 51.3338V51.8125H49.3653C49.4805 51.614 49.6455 51.4489 49.8439 51.3335V51.3338ZM36.7189 37.375H43.2814V44.9603C43.2816 45.098 43.2383 45.2323 43.1577 45.3441C43.0772 45.4559 42.9635 45.5394 42.8327 45.5829L40.0002 46.5271L37.1676 45.5829C37.0369 45.5394 36.9232 45.4559 36.8426 45.3441C36.7621 45.2323 36.7188 45.098 36.7189 44.9603V37.375ZM47.7535 30.6739C47.3923 30.492 46.9986 30.3836 46.5952 30.3549C46.1918 30.3262 45.7867 30.3778 45.4034 30.5068C44.6065 30.7739 43.9206 31.2977 43.4533 31.9963C43.1767 32.4088 42.9846 32.872 42.8882 33.3592C42.7918 33.8464 42.793 34.3478 42.8917 34.8346L43.1372 36.0625H40.7568L41.0909 33.7246C41.2583 32.5521 41.8431 31.4794 42.7379 30.7033C43.6326 29.9273 44.7772 29.5 45.9616 29.5H46.7212C47.045 29.4999 47.3595 29.6081 47.6147 29.8072C47.87 30.0064 48.0513 30.2852 48.13 30.5992L48.205 30.8992L47.7535 30.6739ZM45.3541 26.0005L46.2288 25.7067C46.446 25.6386 46.6789 25.6386 46.8961 25.7067L47.7765 26.0039L47.3241 28.2549C47.1262 28.2103 46.9241 28.1877 46.7212 28.1873H45.9616C45.904 28.1873 45.8466 28.1881 45.7894 28.1897L45.3541 26.0005ZM38.1117 23.743L40.0002 22.9876L41.8887 23.743C42.044 23.8053 42.1697 23.9245 42.24 24.0763C42.3104 24.2281 42.3203 24.401 42.2675 24.5598L41.4959 26.875H38.5044L37.7328 24.5602C37.68 24.4014 37.6897 24.2284 37.7602 24.0765C37.8306 23.9246 37.9563 23.8053 38.1117 23.743ZM38.3824 28.1871H41.6176L42.3733 29.3206C41.2396 30.1213 40.4046 31.2766 40 32.6042C39.5953 31.2766 38.7604 30.1214 37.6268 29.3206L38.3824 28.1871ZM33.1038 25.7067C33.321 25.6385 33.5539 25.6385 33.7711 25.7067L34.6515 26.0038L34.2122 28.1896C34.1546 28.188 34.0967 28.1872 34.0387 28.1872H33.2791C33.0766 28.1876 32.8747 28.2102 32.6772 28.2547L32.229 26.0005L33.1038 25.7067ZM34.5968 30.5068C34.2135 30.3778 33.8084 30.3262 33.405 30.3549C33.0016 30.3835 32.6079 30.492 32.2467 30.6739L31.7955 30.8995L31.8705 30.5995C31.9491 30.2854 32.1304 30.0066 32.3856 29.8074C32.6409 29.6082 32.9553 29.5 33.2791 29.5H34.0387C35.2231 29.5 36.3678 29.9272 37.2625 30.7033C38.1573 31.4793 38.7421 32.5521 38.9095 33.7246L39.2435 36.0625H36.8632L37.1087 34.8352C37.2074 34.3485 37.2085 33.847 37.1122 33.3598C37.0158 32.8727 36.8237 32.4094 36.5471 31.9969C36.0798 31.2981 35.394 30.774 34.5969 30.5068H34.5968ZM33.4759 44.6654L33.3355 44.8759L32.589 44.1295C32.4659 44.0064 32.299 43.9373 32.125 43.9373C31.9509 43.9373 31.784 44.0064 31.661 44.1295L30.8125 44.9779V43.9375C30.8125 43.8187 30.7803 43.7021 30.7193 43.6002C30.6582 43.4983 30.5707 43.4149 30.4659 43.3588C30.3612 43.3028 30.2432 43.2762 30.1246 43.2819C30.0059 43.2877 29.891 43.3255 29.7922 43.3914C28.9513 43.9531 28.0006 44.3297 27.0031 44.4961C27.6607 43.8068 28.4325 43.2363 29.2844 42.81L29.793 42.5557C29.917 42.4937 30.0181 42.3941 30.082 42.2712C30.1459 42.1482 30.1692 42.0082 30.1486 41.8711C30.128 41.7341 30.0645 41.6071 29.9673 41.5084C29.8701 41.4096 29.7442 41.3441 29.6075 41.3214L28.1211 41.0736C26.789 40.8528 25.5021 40.4153 24.3115 39.7785L28.2601 39.3398C28.4067 39.3235 28.5436 39.2583 28.6486 39.1547C28.7536 39.0511 28.8207 38.9152 28.8389 38.7688C28.8572 38.6224 28.8256 38.4741 28.7492 38.3479C28.6729 38.2217 28.5562 38.1249 28.4181 38.0731L25.3835 36.9347C24.5837 36.6362 23.8489 36.1865 23.2191 35.6102L26.7936 36.057C26.9344 36.0746 27.077 36.0461 27.2002 35.9758C27.3234 35.9056 27.4206 35.7973 27.477 35.6671C27.5335 35.537 27.5463 35.3921 27.5135 35.2541C27.4808 35.1161 27.4041 34.9925 27.2952 34.9017L25.2745 33.2177C24.1062 32.2433 23.2109 30.9822 22.6761 29.558L22.4442 28.9396L31.068 36.0416C31.1632 36.1202 31.2342 36.2242 31.2728 36.3416C31.3113 36.459 31.3158 36.5848 31.2857 36.7046C31.2272 36.9333 31.1621 37.1861 31.0989 37.4277C30.9821 37.8763 31.0081 38.35 31.1733 38.7831C31.3385 39.2161 31.6346 39.5868 32.0205 39.8436L32.0459 39.8605C32.4758 40.1472 32.9925 40.2741 33.5063 40.2192C34.02 40.1644 34.4983 39.9312 34.8579 39.5601C34.8819 39.5355 34.9038 39.5089 34.9235 39.4807L35.4063 38.7936V40.3281L34.9367 40.6803C34.4915 41.0134 33.9542 41.2005 33.3984 41.2159C32.8426 41.2313 32.2957 41.0743 31.8327 40.7664C31.761 40.7186 31.6806 40.6854 31.5961 40.6687C31.5115 40.652 31.4245 40.6521 31.34 40.669C31.2555 40.6859 31.1752 40.7192 31.1035 40.7672C31.0319 40.8151 30.9705 40.8767 30.9227 40.9484C30.8749 41.0202 30.8417 41.1006 30.8249 41.1851C30.8082 41.2697 30.8083 41.3567 30.8252 41.4412C30.8421 41.5257 30.8755 41.606 30.9235 41.6776C30.9714 41.7492 31.033 41.8107 31.1047 41.8585C31.7392 42.2806 32.481 42.5129 33.2429 42.5282C34.0048 42.5435 34.7553 42.3411 35.4063 41.9448V43.3523C34.6164 43.5218 33.9239 43.9928 33.4761 44.6652L33.4759 44.6654ZM44.7072 47.6038C45.317 48.2102 45.7187 48.9945 45.8545 49.8438H44.981C44.4881 49.0274 43.7727 48.3685 42.9187 47.9442C42.7756 47.8727 42.6114 47.8559 42.4568 47.8969C42.3022 47.938 42.1679 48.0341 42.0792 48.1672L40.0002 51.2856L37.9212 48.1669C37.8325 48.0338 37.6982 47.9377 37.5436 47.8967C37.3891 47.8556 37.2248 47.8724 37.0818 47.9439C36.2276 48.3682 35.5122 49.0273 35.0193 49.8438H34.1458C34.2817 48.9947 34.6833 48.2106 35.293 47.6043L35.7589 47.1384C35.9345 46.9621 36.0893 46.7661 36.2201 46.5545C36.3826 46.6723 36.5621 46.7647 36.7526 46.8282L39.7926 47.8416C39.9273 47.8866 40.073 47.8866 40.2077 47.8416L43.2477 46.8282C43.4382 46.7647 43.6178 46.6724 43.7803 46.5545C43.9111 46.7661 44.0658 46.9621 44.2414 47.1384L44.7072 47.6038ZM54.7258 33.2177L52.7051 34.9017C52.5961 34.9925 52.5195 35.1161 52.4867 35.2541C52.454 35.3921 52.4668 35.537 52.5232 35.6671C52.5797 35.7972 52.6768 35.9055 52.8 35.9758C52.9232 36.0461 53.0658 36.0746 53.2066 36.057L56.7812 35.6102C56.1514 36.1865 55.4166 36.6362 54.6167 36.9347L51.5823 38.0727C51.4441 38.1245 51.3275 38.2213 51.2511 38.3475C51.1748 38.4737 51.1432 38.622 51.1614 38.7684C51.1797 38.9148 51.2467 39.0507 51.3517 39.1543C51.4568 39.2579 51.5936 39.3231 51.7402 39.3394L55.6889 39.7781C54.4981 40.4149 53.211 40.8524 51.8788 41.0733L50.3924 41.321C50.2557 41.3438 50.1297 41.4093 50.0325 41.508C49.9353 41.6068 49.8719 41.7338 49.8513 41.8708C49.8307 42.0078 49.854 42.1479 49.9179 42.2708C49.9817 42.3938 50.0829 42.4934 50.2068 42.5554L50.7154 42.8097C51.5673 43.236 52.3391 43.8065 52.9966 44.4958C51.9992 44.3293 51.0485 43.9528 50.2076 43.3911C50.1087 43.3253 49.9939 43.2875 49.8752 43.2819C49.7566 43.2762 49.6387 43.3028 49.534 43.3589C49.4293 43.415 49.3418 43.4984 49.2808 43.6003C49.2199 43.7022 49.1877 43.8187 49.1877 43.9375V44.9781L48.3392 44.1297C48.2783 44.0688 48.2059 44.0204 48.1263 43.9874C48.0467 43.9545 47.9614 43.9375 47.8752 43.9375C47.789 43.9375 47.7037 43.9545 47.624 43.9874C47.5444 44.0204 47.4721 44.0688 47.4111 44.1297L46.6646 44.8762L46.5242 44.6656C46.0764 43.9931 45.3839 43.5219 44.5939 43.3524V41.9441C45.2449 42.3405 45.9953 42.5428 46.7573 42.5276C47.5192 42.5123 48.261 42.2799 48.8955 41.8578C49.0403 41.7613 49.1408 41.6112 49.175 41.4405C49.2091 41.2698 49.1741 41.0926 49.0775 40.9478C48.981 40.803 48.8308 40.7024 48.6602 40.6683C48.4895 40.6342 48.3123 40.6692 48.1675 40.7658C47.7045 41.0737 47.1576 41.2307 46.6018 41.2153C46.0461 41.1998 45.5087 41.0127 45.0636 40.6796L44.5939 40.3281V38.7941L45.0767 39.4812C45.0964 39.5093 45.1184 39.5359 45.1423 39.5606C45.502 39.9316 45.9803 40.1648 46.4941 40.2196C47.0079 40.2744 47.5246 40.1473 47.9544 39.8605L47.9803 39.8434C48.366 39.5866 48.6621 39.216 48.8272 38.783C48.9923 38.35 49.0183 37.8763 48.9015 37.4279C48.8382 37.1862 48.7731 36.9334 48.7147 36.7047C48.6846 36.5849 48.6891 36.459 48.7276 36.3417C48.7661 36.2243 48.8371 36.1203 48.9324 36.0417L57.5562 28.9396L57.3244 29.558C56.7895 30.9822 55.8941 32.2433 54.7258 33.2177Z" fill="black"/>
<path d="M38.2234 43.745C38.2844 43.8059 38.3567 43.8543 38.4364 43.8872C38.516 43.9202 38.6013 43.9372 38.6875 43.9372C38.7737 43.9372 38.859 43.9202 38.9386 43.8872C39.0183 43.8543 39.0906 43.8059 39.1515 43.745C39.3806 43.5163 39.5488 43.2341 39.641 42.9239C39.7331 42.6137 39.7463 42.2853 39.6793 41.9688H40.3564C40.5522 42.2385 40.6572 42.5635 40.6562 42.8968V43.2812C40.6562 43.4553 40.7254 43.6222 40.8485 43.7453C40.9715 43.8684 41.1384 43.9375 41.3125 43.9375C41.4865 43.9375 41.6535 43.8684 41.7765 43.7453C41.8996 43.6222 41.9687 43.4553 41.9687 43.2812V42.8968C41.9704 42.2461 41.7512 41.6141 41.3469 41.1042C41.3907 40.9739 41.4742 40.8605 41.5858 40.7802C41.6973 40.6998 41.8313 40.6565 41.9687 40.6562C42.1428 40.6562 42.3097 40.5871 42.4328 40.464C42.5558 40.341 42.625 40.174 42.625 40C42.625 39.826 42.5558 39.659 42.4328 39.536C42.3097 39.4129 42.1428 39.3438 41.9687 39.3438C41.5618 39.3443 41.1649 39.4707 40.8327 39.7057C40.5004 39.9407 40.249 40.2727 40.1129 40.6562H39.3437V39.3438C39.3437 39.1697 39.2746 39.0028 39.1515 38.8797C39.0285 38.7566 38.8615 38.6875 38.6875 38.6875C38.5135 38.6875 38.3465 38.7566 38.2235 38.8797C38.1004 39.0028 38.0312 39.1697 38.0312 39.3438V41.3125C38.0313 41.4133 38.0548 41.5128 38.0997 41.6031C38.0997 41.604 38.0997 41.6051 38.1006 41.606L38.3417 42.0884C38.4011 42.2069 38.4217 42.3411 38.4004 42.4719C38.3792 42.6027 38.3173 42.7236 38.2234 42.8172C38.1005 42.9403 38.0314 43.1071 38.0314 43.2811C38.0314 43.4551 38.1005 43.6219 38.2234 43.745Z" fill="black"/>
</svg>
