<svg width="80" height="80" viewBox="0 0 80 80" fill="none" xmlns="http://www.w3.org/2000/svg">
<path d="M40 0L44.1811 0.219124L48.3165 0.874096L52.3607 1.95774L56.2695 3.45818L60 5.35898L63.5114 7.63932L66.7652 10.2742L69.7258 13.2348L72.3607 16.4886L74.641 20L76.5418 23.7305L78.0423 27.6393L79.1259 31.6835L79.7809 35.8189L80 40L79.7809 44.1811L79.1259 48.3165L78.0423 52.3607L76.5418 56.2695L74.641 60L72.3607 63.5114L69.7258 66.7652L66.7652 69.7258L63.5114 72.3607L60 74.641L56.2695 76.5418L52.3607 78.0423L48.3165 79.1259L44.1811 79.7809L40 80L35.8189 79.7809L31.6835 79.1259L27.6393 78.0423L23.7305 76.5418L20 74.641L16.4886 72.3607L13.2348 69.7258L10.2742 66.7652L7.63932 63.5114L5.35898 60L3.45818 56.2695L1.95774 52.3607L0.874096 48.3165L0.219124 44.1811L0 40L0.219124 35.8189L0.874096 31.6835L1.95774 27.6393L3.45818 23.7305L5.35898 20L7.63932 16.4886L10.2742 13.2348L13.2348 10.2742L16.4886 7.63932L20 5.35898L23.7305 3.45818L27.6393 1.95774L31.6835 0.874096L35.8189 0.219124L40 0Z" fill="#EDF2FF"/>
<path d="M25.973 22.5423C26.3 22.3082 26.3629 21.868 26.1126 21.5609C25.8643 21.2538 25.3967 21.1937 25.0686 21.4298C19.3055 25.5625 16 31.8341 16 38.6359C16 39.0231 16.3334 39.3362 16.7457 39.3362C17.1579 39.3362 17.4914 39.0231 17.4914 38.6359C17.4914 32.2743 20.5828 26.4089 25.973 22.5423ZM38.2534 60.2579C38.6528 60.2579 38.9841 59.9597 38.998 59.5816C39.0118 59.1944 38.6901 58.8703 38.2779 58.8573C34.5558 58.7362 30.9169 57.7058 27.7552 55.8771C27.4058 55.675 26.9456 55.776 26.7293 56.1062C26.5131 56.4353 26.6228 56.8675 26.9733 57.0695C30.3555 59.0264 34.2469 60.1288 38.2278 60.2579C38.2363 60.2579 38.2448 60.2579 38.2534 60.2579ZM39.0363 18.4006C50.9172 18.4006 60.5834 27.4783 60.5834 38.6359C60.5834 39.4203 60.5366 40.2006 60.4439 40.9559C60.397 41.3401 60.69 41.6872 61.099 41.7312C61.1278 41.7342 61.1565 41.7362 61.1853 41.7362C61.5592 41.7362 61.8809 41.4721 61.9246 41.116C62.0237 40.3076 62.0748 39.4733 62.0748 38.6359C62.0748 26.706 51.7396 17 39.0363 17C38.6241 17 38.2907 17.3131 38.2907 17.7003C38.2907 18.0874 38.6241 18.4006 39.0363 18.4006ZM42.0446 56.9555C42.4516 56.8965 42.7317 56.5403 42.67 56.1572C42.6071 55.774 42.2321 55.5199 41.8199 55.5699C40.9037 55.701 39.9663 55.767 39.0363 55.767C28.9781 55.767 20.7958 48.0808 20.7958 38.6349C20.7958 29.187 28.9781 21.5009 39.0363 21.5009C49.0967 21.5009 57.2811 29.187 57.2811 38.6349C57.2811 38.9831 57.2726 39.3292 57.2492 39.6704C57.2225 40.0565 57.5336 40.3897 57.9437 40.4157C58.3517 40.4367 58.7096 40.1486 58.7363 39.7624C58.7618 39.3902 58.7725 39.0141 58.7725 38.6349C58.7725 28.4147 49.918 20.0993 39.0363 20.0993C28.1557 20.0993 19.3044 28.4147 19.3044 38.6349C19.3044 48.8542 28.1568 57.1676 39.0363 57.1676C40.0419 57.1686 41.0539 57.0966 42.0446 56.9555ZM54.6851 39.9965C55.141 40.0205 55.4446 39.7104 55.4606 39.3252C55.4712 39.0961 55.4755 38.867 55.4755 38.6359C55.4755 30.1234 48.1007 23.1966 39.0363 23.1966C29.9731 23.1966 22.5982 30.1224 22.5982 38.6359C22.5982 47.1475 29.972 54.0723 39.0363 54.0723C41.5866 54.0723 44.0335 53.5371 46.3132 52.4817C46.6828 52.3106 46.8341 51.8904 46.6519 51.5433C46.4697 51.1971 46.0234 51.0541 45.6527 51.2251C43.5808 52.1845 41.3544 52.6707 39.0353 52.6707C30.7944 52.6707 24.0896 46.3751 24.0896 38.6359C24.0896 30.8957 30.7944 24.5981 39.0353 24.5981C47.2772 24.5981 53.982 30.8957 53.982 38.6359C53.982 38.849 53.9777 39.0591 53.9692 39.2692C53.9543 39.6554 54.2749 39.9815 54.6851 39.9965ZM61.6072 43.599C60.0604 42.1474 58.0034 41.3471 55.8164 41.3471C53.6283 41.3471 51.5724 42.1474 50.0256 43.599C47.5979 45.8799 46.9779 49.3854 48.4309 52.2906L38.2992 61.8035C38.084 62.0056 38.0211 62.3097 38.1404 62.5728C38.2576 62.8319 38.5282 63 38.8275 63H38.8393L44.6748 62.912C45.0785 62.905 45.4045 62.5988 45.4077 62.2197L45.4301 60.3449L47.7033 60.1228C48.0804 60.0858 48.367 59.7907 48.3723 59.4355L48.3989 57.5728L50.5508 57.4267C50.7297 57.4147 50.8981 57.3427 51.0248 57.2236L52.3553 55.9731C53.4494 56.4543 54.6499 56.7074 55.8611 56.7074C58.0321 56.7074 60.0732 55.9151 61.6072 54.4765C64.7976 51.4782 64.7976 46.5992 61.6072 43.599ZM60.5515 53.4861C59.2998 54.6606 57.6348 55.3078 55.8611 55.3078C54.7138 55.3068 53.5772 55.0307 52.5737 54.5065C52.284 54.3554 51.9207 54.4014 51.6842 54.6225L50.1662 56.0481L47.6096 56.2212C47.2229 56.2472 46.9214 56.5463 46.9172 56.9095L46.8905 58.7933L44.6151 59.0154C44.238 59.0524 43.9504 59.3485 43.9461 59.7036L43.9248 61.5204L40.6577 61.5704L49.8701 52.9208C50.1055 52.6987 50.1566 52.3576 49.9936 52.0845C48.5406 49.6375 48.988 46.5562 51.0813 44.5894C52.3457 43.4009 54.0278 42.7476 55.8164 42.7476C57.605 42.7476 59.287 43.4009 60.5515 44.5894C63.1614 47.0424 63.1614 51.0341 60.5515 53.4861ZM56.2776 46.2001C55.9357 46.5202 55.7461 46.9474 55.7461 47.4016C55.7461 47.8567 55.9346 48.2849 56.2776 48.6061C56.6196 48.9262 57.0734 49.1033 57.557 49.1033C58.0406 49.1033 58.4945 48.9262 58.8364 48.6071C59.1805 48.2859 59.3701 47.8577 59.369 47.4016C59.369 46.9464 59.1794 46.5192 58.8375 46.2001C58.1525 45.5578 56.9594 45.5578 56.2776 46.2001ZM57.7839 47.6166C57.6199 47.7687 57.4942 47.7687 57.3312 47.6166C57.2492 47.5406 57.2374 47.4506 57.2374 47.4036C57.2374 47.3565 57.2492 47.2675 57.3312 47.1915C57.4121 47.1144 57.508 47.1034 57.557 47.1034C57.606 47.1034 57.7019 47.1144 57.785 47.1935C57.8659 47.2685 57.8787 47.3575 57.8787 47.4036C57.8787 47.4496 57.8659 47.5386 57.7839 47.6166ZM43.1717 33.4068C43.1717 31.2659 41.3171 29.5242 39.0363 29.5242C36.7599 29.5242 34.9074 31.2659 34.9074 33.4068C34.9074 35.5467 36.7599 37.2864 39.0363 37.2864C41.3171 37.2864 43.1717 35.5467 43.1717 33.4068ZM36.3987 33.4068C36.3987 32.0382 37.5812 30.9248 39.0363 30.9248C40.4936 30.9248 41.6793 32.0382 41.6793 33.4068C41.6793 34.7743 40.4936 35.8858 39.0363 35.8858C37.5823 35.8858 36.3987 34.7743 36.3987 33.4068ZM31.1896 45.1986V45.8989H46.8884V45.1986C46.8884 41.134 43.3645 37.8276 39.0353 37.8276C34.7092 37.8266 31.1896 41.134 31.1896 45.1986ZM39.0353 39.2282C42.2907 39.2282 44.9826 41.5351 45.3534 44.4984H32.7246C33.0943 41.5341 35.7841 39.2282 39.0353 39.2282Z" fill="#111111"/>
</svg>
