<svg width="80" height="80" viewBox="0 0 80 80" fill="none" xmlns="http://www.w3.org/2000/svg">
<path d="M40 0L44.1811 0.219124L48.3165 0.874096L52.3607 1.95774L56.2695 3.45818L60 5.35898L63.5114 7.63932L66.7652 10.2742L69.7258 13.2348L72.3607 16.4886L74.641 20L76.5418 23.7305L78.0423 27.6393L79.1259 31.6835L79.7809 35.8189L80 40L79.7809 44.1811L79.1259 48.3165L78.0423 52.3607L76.5418 56.2695L74.641 60L72.3607 63.5114L69.7258 66.7652L66.7652 69.7258L63.5114 72.3607L60 74.641L56.2695 76.5418L52.3607 78.0423L48.3165 79.1259L44.1811 79.7809L40 80L35.8189 79.7809L31.6835 79.1259L27.6393 78.0423L23.7305 76.5418L20 74.641L16.4886 72.3607L13.2348 69.7258L10.2742 66.7652L7.63932 63.5114L5.35898 60L3.45818 56.2695L1.95774 52.3607L0.874096 48.3165L0.219124 44.1811L0 40L0.219124 35.8189L0.874096 31.6835L1.95774 27.6393L3.45818 23.7305L5.35898 20L7.63932 16.4886L10.2742 13.2348L13.2348 10.2742L16.4886 7.63932L20 5.35898L23.7305 3.45818L27.6393 1.95774L31.6835 0.874096L35.8189 0.219124L40 0Z" fill="#EDF2FF"/>
<path d="M51.2349 43.7018L51.1665 43.6891C51.1715 43.6557 51.1755 43.6194 51.1796 43.5821V43.5782L51.2379 43.5752L51.2198 42.8665H51.2168C51.2308 42.2765 51.2248 41.4441 51.2178 40.2651L51.1977 37.1808C51.1946 36.8029 50.8809 36.4976 50.4939 36.4976H50.4898C50.1007 36.4996 49.7881 36.8098 49.7901 37.1897L49.8102 40.274C49.8283 43.0284 49.8313 43.5448 49.8313 43.6017H49.8323C49.8313 43.6037 49.8313 43.6066 49.8313 43.6096H49.8303C49.8303 43.6115 49.8313 43.6145 49.8313 43.6174C49.8293 43.6439 49.8283 43.6734 49.8283 43.7028C49.8283 43.8805 49.8454 44.0513 49.8615 44.2241H41.4431C41.054 44.2241 40.7393 44.5313 40.7393 44.9112C40.7393 45.2911 41.054 45.5984 41.4431 45.5984H50.1611C51.1444 48.4471 54.0641 50.4545 55.0967 51.0916V53.5163H22.4076V51.3066C23.5377 50.431 27.5322 47.0718 27.5322 43.3131V34.2732C27.5322 28.2813 32.5231 23.4074 38.6581 23.4074C39.8948 23.4074 41.1123 23.6048 42.2776 23.9935C42.6426 24.1172 43.0447 23.9258 43.1714 23.5655C43.2971 23.2062 43.101 22.8155 42.7331 22.6928C41.6442 22.3286 40.5131 22.1225 39.3619 22.0597V18.5061C39.3619 18.1262 39.0472 17.819 38.6581 17.819C38.269 17.819 37.9543 18.1262 37.9543 18.5061V22.0665C31.3709 22.4258 26.1246 27.7551 26.1246 34.2722V43.3121C26.1246 46.8981 21.3358 50.378 21.2875 50.4123L21 50.6195V54.8906H32.5884C33.0791 57.7844 35.6529 60.001 38.7526 60.001C41.8523 60.001 44.4272 57.7844 44.9178 54.8906H56.5032V50.3014L56.1443 50.1041C56.095 50.0766 51.2349 47.3653 51.2349 43.7018ZM38.7526 58.6257C36.4311 58.6257 34.4907 57.0217 34.0191 54.8896H43.4881C43.0156 57.0217 41.0751 58.6257 38.7526 58.6257ZM35.1422 44.2231C34.7531 44.2231 34.4384 44.5304 34.4384 44.9102C34.4384 45.2901 34.7531 45.5974 35.1422 45.5974H38.6581C39.0472 45.5974 39.3619 45.2901 39.3619 44.9102C39.3619 44.5304 39.0472 44.2231 38.6581 44.2231H35.1422ZM21.7058 34.5952C22.0949 34.5952 22.4096 34.2879 22.4096 33.908C22.4096 27.4812 26.3287 21.7102 32.3954 19.2051C32.7533 19.0578 32.9202 18.6544 32.7694 18.3049C32.6186 17.9564 32.2064 17.7925 31.8474 17.9397C25.2579 20.6598 21.001 26.9276 21.001 33.908C21.001 34.287 21.3167 34.5952 21.7058 34.5952ZM64.7939 25.3913L55.3872 16.2022C55.2545 16.0736 55.0755 16 54.8885 16C54.7015 16 54.5236 16.0726 54.3909 16.2012L44.9802 25.3904C44.7791 25.5867 44.7188 25.8822 44.8284 26.1393C44.9369 26.3956 45.1933 26.5634 45.4778 26.5634H48.3111V33.9051C48.3111 34.285 48.6258 34.5922 49.0149 34.5922H53.4578C53.8469 34.5922 54.1616 34.285 54.1616 33.9051V29.3277H55.5903V33.9051C55.5903 34.285 55.905 34.5922 56.2941 34.5922H60.7561C61.1452 34.5922 61.4599 34.285 61.4599 33.9051V26.5634H64.2942C64.5787 26.5634 64.8351 26.3956 64.9437 26.1393C65.0543 25.8831 64.995 25.5886 64.7939 25.3913ZM60.7571 25.1901C60.368 25.1901 60.0534 25.4974 60.0534 25.8773V33.2189H56.9989V28.6415C56.9989 28.2617 56.6842 27.9544 56.2951 27.9544H53.4588C53.0697 27.9544 52.755 28.2617 52.755 28.6415V33.2189H49.7197V25.8773C49.7197 25.4974 49.405 25.1901 49.0159 25.1901H47.177L54.8895 17.66L62.5981 25.1901H60.7571Z" fill="black"/>
</svg>
